<?xml version="1.0"?>
<svg xmlns="http://www.w3.org/2000/svg" viewBox="0 0 512 512" width="512" height="512"><g id="outline"><path d="M463.49,485.191A367.689,367.689,0,0,1,440,355.65V347.7A32.012,32.012,0,0,0,456,320V296a7.982,7.982,0,0,0-3.127-6.335l0-.006-17.46-13.43a866.1,866.1,0,0,1-126.24-119.106c-9.049-10.449-17.913-21.19-26.348-31.926L264,101.233V64h32v8a16.019,16.019,0,0,0,16,16h56a8,8,0,0,0,5.657-13.657L363.313,64l10.344-10.343A8,8,0,0,0,368,40H312V32a16.019,16.019,0,0,0-16-16H256a8,8,0,0,0-8,8v77.233L229.169,125.2c-8.434,10.735-17.3,21.476-26.346,31.924A866.109,866.109,0,0,1,76.582,276.229l-17.46,13.43.005.006A7.982,7.982,0,0,0,56,296v24a32.056,32.056,0,0,0,24,30.987v4.663a369.437,369.437,0,0,1-5.922,65.825A368.834,368.834,0,0,1,56.51,485.189,8,8,0,0,0,64,496H456a8,8,0,0,0,7.49-10.809ZM412.747,480l-4.073-7.461a330.571,330.571,0,0,1-38.453-121.072A31.877,31.877,0,0,0,400,341.132c.406.46.821.912,1.252,1.348A346.637,346.637,0,0,0,442.52,480Zm-48,0-4.073-7.461a330.571,330.571,0,0,1-38.453-121.072A31.877,31.877,0,0,0,352,341.132c.406.46.821.912,1.252,1.348A346.637,346.637,0,0,0,394.52,480Zm-105.691,0h-6.112l-11.329-22.648c-.064-.128-.114-.261-.174-.391A50.182,50.182,0,0,0,256,442.24a50.194,50.194,0,0,0,14.559,14.721c-.06.129-.11.262-.174.391ZM248,415.015A34.2,34.2,0,0,1,222.963,448H217.33L248,396.883Zm16,0V396.883L294.67,448h-5.634A34.2,34.2,0,0,1,264,415.015ZM312,456v-8a8.009,8.009,0,0,0-1.14-4.116l-48-80a8,8,0,0,0-13.72,0l-48,80A8.009,8.009,0,0,0,200,448v32H173.475a350.292,350.292,0,0,0,40.879-133.323A31.924,31.924,0,0,0,256,341.132a31.934,31.934,0,0,0,48,0c.406.46.821.912,1.252,1.348A346.637,346.637,0,0,0,346.52,480H312ZM125.475,480a350.292,350.292,0,0,0,40.879-133.323,31.918,31.918,0,0,0,31.707,2.06,334.238,334.238,0,0,1-38.739,123.8L155.25,480Zm-48,0a350.292,350.292,0,0,0,40.879-133.323,31.918,31.918,0,0,0,31.707,2.06,334.238,334.238,0,0,1-38.739,123.8L107.25,480ZM96,350.987a31.709,31.709,0,0,0,6.061-2.25,334.485,334.485,0,0,1-7.94,44.632C95.355,380.83,96,368.224,96,355.65ZM392,320a16,16,0,0,1-32,0V304h32Zm-48,0a16,16,0,0,1-32,0V304h32Zm-48,0a16,16,0,0,1-32,0V304h32Zm-48,0a16,16,0,0,1-32,0V304h32Zm-128-6.988V304h32v9.012c0,2.976-.049,5.952-.129,8.925A15.994,15.994,0,0,1,120,320Zm48,0V304h32v9.012c0,2.976-.049,5.952-.129,8.925A15.994,15.994,0,0,1,168,320ZM256,288H221.479A347.711,347.711,0,0,0,256,195.266,347.736,347.736,0,0,0,290.521,288Zm107.728,0a450.916,450.916,0,0,1-69.822-113.13c.3-.1.6-.206.894-.312l27.406,39.862a468.536,468.536,0,0,0,33.443,43.038L382.372,288ZM278.32,179.092A466.811,466.811,0,0,0,343.033,288H308.747l-4.074-7.461a331.865,331.865,0,0,1-35.3-100.051Q273.867,179.966,278.32,179.092ZM207.328,280.537,203.253,288H168.967A466.832,466.832,0,0,0,233.68,179.092q4.449.874,8.95,1.4A331.86,331.86,0,0,1,207.328,280.537Zm-17.535-66.115L217.2,174.558c.3.106.6.208.894.312A450.92,450.92,0,0,1,148.272,288H129.629l26.722-30.542A468.6,468.6,0,0,0,189.793,214.422Zm236.1,179.354a332.155,332.155,0,0,1-7.671-42.309A32,32,0,0,0,424,352v3.65Q424,374.823,425.892,393.776ZM440,320a16,16,0,0,1-32,0V304h32Zm-15.507-32H403.63l-35.94-41.078c-8.08-9.234-15.814-18.855-23.117-28.718A881.462,881.462,0,0,0,424.493,288ZM348.687,56l-2.344,2.343a8,8,0,0,0,0,11.314L348.687,72H312V56ZM296,48H264V32h32Zm-54.25,87.083L256,116.948l14.249,18.135c6.368,8.106,12.979,16.213,19.727,24.2a99.466,99.466,0,0,1-67.952,0C228.772,151.3,235.382,143.189,241.75,135.083ZM167.428,218.2c-7.3,9.863-15.037,19.484-23.118,28.719L108.37,288H87.506A881.343,881.343,0,0,0,167.428,218.2ZM72,320V304h32v9.012c0,2.976-.049,5.952-.129,8.925A15.994,15.994,0,0,1,72,320ZM216,480V464h8a7.977,7.977,0,0,0,1.94-.239c.3-.075.6-.163.9-.244.152.332.3.664.469.992L235.054,480Zm60.946,0,7.749-15.492c.164-.327.317-.659.469-.991.3.081.594.169.9.244A7.977,7.977,0,0,0,288,464h8v16Z"/></g></svg>
