<svg height="512" viewBox="0 0 64 64" width="512" xmlns="http://www.w3.org/2000/svg"><g id="Filled_outline" data-name="Filled outline"><path d="m3 33h58v4h-58z" fill="#d3843d"/><path d="m5 37h54v10h-54z" fill="#ad6327"/><path d="m50 24a9 9 0 0 0 -2.313.311 4.986 4.986 0 0 0 -4.687-3.311 5 5 0 0 0 -9.909-.907 6.891 6.891 0 0 0 -5.527 1.493 7 7 0 0 0 -13.564 2.414 9 9 0 0 0 -9 9h54a9 9 0 0 0 -9-9z" fill="#55b56a"/><path d="m6 33h-2a10 10 0 0 1 17.453-6.667l-1.49 1.334a8 8 0 0 0 -13.963 5.333z" fill="#42874f"/><path d="m27.075 23.572-1.64-1.144a8 8 0 0 1 12.279-1.028l-1.428 1.4a6 6 0 0 0 -9.211.77z" fill="#42874f"/><path d="m47 30h-2a3 3 0 0 0 -6 0h-2a5 5 0 0 1 10 0z" fill="#42874f"/><path d="m16 44h-8v-4h2v2h6z" fill="#f4f4e6"/><path d="m18 42h2v2h-2z" fill="#f4f4e6"/><g fill="#69cc7b"><path d="m28 27h2v2h-2z"/><path d="m32 23h2v2h-2z"/><path d="m20 21h2v2h-2z"/><path d="m51 28h2v2h-2z"/><path d="m13 27h2v2h-2z"/></g><path d="m56 44h-4v-2h2v-2h2z" fill="#f4f4e6"/><path d="m50 23a9.818 9.818 0 0 0 -1.736.159 6.02 6.02 0 0 0 -4.335-3.086 6 6 0 0 0 -11.581-1.064 7.843 7.843 0 0 0 -4.377 1.081 7.995 7.995 0 0 0 -14.914 2.954 10.018 10.018 0 0 0 -9.006 8.956h-2.051v6h2v10h56v-10h2v-6h-2.051a10.013 10.013 0 0 0 -9.949-9zm-36 2a8.013 8.013 0 0 1 5.963 2.667l1.49-1.334a10.013 10.013 0 0 0 -6.372-3.273 5.978 5.978 0 0 1 11.276-1.711 8.045 8.045 0 0 0 -.922 1.079l1.64 1.144a6.048 6.048 0 0 1 4.925-2.572 5.952 5.952 0 0 1 .936.081h.007a6.01 6.01 0 0 1 3.342 1.72l1.43-1.4a8.034 8.034 0 0 0 -3.342-2.039 3.986 3.986 0 0 1 7.627 1.638 1 1 0 0 0 1 1 4 4 0 0 1 3.746 2.65 1 1 0 0 0 1.2.628 7.98 7.98 0 0 1 9.991 6.722h-51.875a8.014 8.014 0 0 1 7.938-7zm44 21h-52v-8h52zm2-10h-56v-2h56z"/><path d="m42 25a5.006 5.006 0 0 0 -5 5h2a3 3 0 0 1 6 0h2a5.006 5.006 0 0 0 -5-5z"/><path d="m16 42h-6v-2h-2v4h8z"/><path d="m18 42h2v2h-2z"/><path d="m28 27h2v2h-2z"/><path d="m32 23h2v2h-2z"/><path d="m20 21h2v2h-2z"/><path d="m51 28h2v2h-2z"/><path d="m13 27h2v2h-2z"/><path d="m56 40h-2v2h-2v2h4z"/></g></svg>