<?xml version="1.0" encoding="iso-8859-1"?>
<!-- Generator: Adobe Illustrator 21.0.0, SVG Export Plug-In . SVG Version: 6.00 Build 0)  -->
<svg xmlns="http://www.w3.org/2000/svg" xmlns:xlink="http://www.w3.org/1999/xlink" version="1.1" id="Capa_1" x="0px" y="0px" viewBox="0 0 509.035 509.035" style="enable-background:new 0 0 509.035 509.035;" xml:space="preserve" width="512" height="512">
<g>
	<path style="fill:#0A8C4B;" d="M349.518,224.917v-28.564c0-36.21,29.354-65.564,65.564-65.564h28.564v28.564   c0,36.21-29.354,65.564-65.564,65.564H349.518z"/>
	<path style="fill:#08733D;" d="M433.046,195.079c-6.598-3.182-13.669-5.537-21.081-6.926c-8.9-1.667-16.679-7.089-21.314-14.868   c-5.519-9.263-12.757-17.384-21.271-23.923c-12.245,11.912-19.863,28.557-19.863,46.99v28.564h28.564   C401.109,224.917,421.35,213.036,433.046,195.079z"/>
	<path style="fill:#28C96C;" d="M381.266,202.423c-12.07-32.032-42.987-54.824-79.241-54.824c-9.915,0-19.425,1.72-28.267,4.852   c-14.555-25.626-42.075-42.925-73.652-42.925c-46.76,0-84.667,37.906-84.667,84.666c0,2.506,0.131,4.98,0.344,7.431   c-40.689,6.168-71.873,41.293-71.873,83.704c0,46.76,37.906,84.667,84.667,84.667h234.719c5.542,1.141,11.28,1.742,17.16,1.742   c46.76,0,84.667-37.906,84.667-84.667C465.124,240.58,427.652,202.859,381.266,202.423z"/>
	<g>
		<g>
			<g>
				<path style="fill:#23B05F;" d="M381.266,202.423c-12.07-32.032-42.987-54.824-79.241-54.824c-9.915,0-19.425,1.72-28.267,4.852      c-14.555-25.626-42.075-42.925-73.652-42.925c-28.715,0-54.074,14.309-69.384,36.171c11.37-5.676,24.186-8.887,37.758-8.887      c21.655,0,41.402,8.136,56.368,21.514c12.263,10.962,28.259,16.725,44.707,16.563c0.281-0.003,0.562-0.004,0.843-0.004      c28.051,0,52.908,13.646,68.311,34.659c8.459,11.541,20.745,19.605,34.452,23.71c34.9,10.451,60.335,42.801,60.335,81.102      c0,18.045-5.663,34.757-15.283,48.496c27.803-13.881,46.909-42.591,46.909-75.779      C465.124,240.58,427.652,202.859,381.266,202.423z"/>
			</g>
		</g>
	</g>
	<path style="fill:#AD7A65;" d="M479.609,399.51H29.426c-12.11,0-21.926-9.817-21.926-21.926v0c0-12.11,9.817-21.926,21.926-21.926   h450.183c12.11,0,21.926,9.817,21.926,21.926v0C501.536,389.693,491.719,399.51,479.609,399.51z"/>
	<path style="fill:#9C6E5B;" d="M479.609,355.657h-26.5c12.11,0,21.926,9.817,21.926,21.926c0,12.11-9.817,21.927-21.926,21.927   h26.5c12.11,0,21.926-9.817,21.926-21.927C501.536,365.474,491.719,355.657,479.609,355.657z"/>
	<circle style="fill:#FF4E51;" cx="121.819" cy="278.465" r="24.943"/>
	<circle style="fill:#FF4E51;" cx="342.438" cy="303.408" r="24.943"/>
	<circle style="fill:#FF4E51;" cx="247.834" cy="194.273" r="24.943"/>
	<g>
		<path d="M154.262,278.465c0-17.889-14.554-32.443-32.442-32.443s-32.442,14.554-32.442,32.443s14.554,32.443,32.442,32.443    S154.262,296.354,154.262,278.465z M104.377,278.465c0-9.618,7.824-17.443,17.442-17.443s17.442,7.825,17.442,17.443    s-7.824,17.443-17.442,17.443S104.377,288.083,104.377,278.465z"/>
		<path d="M374.881,303.408c0-17.889-14.554-32.443-32.443-32.443c-17.889,0-32.442,14.554-32.442,32.443    s14.554,32.443,32.442,32.443C360.327,335.851,374.881,321.297,374.881,303.408z M324.995,303.408    c0-9.618,7.824-17.443,17.442-17.443s17.443,7.825,17.443,17.443s-7.825,17.443-17.443,17.443S324.995,313.026,324.995,303.408z"/>
		<path d="M280.277,194.273c0-17.889-14.554-32.443-32.443-32.443c-17.889,0-32.442,14.554-32.442,32.443    s14.554,32.443,32.442,32.443C265.724,226.716,280.277,212.163,280.277,194.273z M230.392,194.273    c0-9.618,7.824-17.443,17.442-17.443s17.443,7.825,17.443,17.443s-7.825,17.443-17.443,17.443S230.392,203.892,230.392,194.273z"/>
		<path d="M479.609,348.157h-30.2c37.133-42.01,28.828-107.204-18.571-138.261c13.015-13.519,20.309-31.428,20.309-50.543v-28.564    c0-4.142-3.357-7.5-7.5-7.5h-28.564c-24.989,0-47.673,12.447-61.091,32.99c-22.885-15.652-50.941-20.051-76.908-12.748    c-16.978-25.748-45.936-41.505-76.977-41.505c-51.378,0-92.967,42.281-92.157,93.454c-30.63,6.984-55.674,29.142-66.274,59.143    c-1.38,3.906,0.667,8.19,4.572,9.57c3.909,1.381,8.19-0.668,9.57-4.573c9.517-26.93,32.925-46.312,61.091-50.581    c3.913-0.593,6.691-4.125,6.348-8.067c-3.983-45.64,32.141-83.945,76.851-83.945c27.699,0,53.422,14.993,67.13,39.129    c1.796,3.162,5.601,4.578,9.025,3.366c39.83-14.107,83.355,6.725,97.985,45.547c1.095,2.907,3.861,4.826,6.948,4.855    c42.122,0.397,76.429,34.985,76.429,77.146c0,23.854-11.188,46.511-30.047,61.088H83.776    c-20.282-14.483-32.335-37.766-32.365-62.739c0.132-4.433-3.369-7.797-7.495-7.797c-3.946,0-7.505,3.095-7.505,7.706    c0,23.609,9.002,45.95,24.745,62.831H29.426C13.2,348.157,0,361.358,0,377.583s13.2,29.426,29.426,29.426h375.62    c4.143,0,7.5-3.358,7.5-7.5s-3.357-7.5-7.5-7.5H29.426c-7.954,0-14.426-6.472-14.426-14.426s6.472-14.426,14.426-14.426    c22.609,0,428.405,0,450.184,0c7.954,0,14.426,6.472,14.426,14.426s-6.472,14.426-14.426,14.426h-46.563    c-4.143,0-7.5,3.358-7.5,7.5s3.357,7.5,7.5,7.5h46.563c16.226,0,29.426-13.201,29.426-29.426S495.835,348.157,479.609,348.157z     M415.082,138.288h21.064v21.064c0,16.607-6.93,32.073-19.16,43.087c-9.909-4.277-20.367-6.693-30.613-7.336    c-4.901-11.091-12.202-21.326-20.617-29.392C376.31,148.665,394.74,138.288,415.082,138.288z"/>
	</g>
</g>















</svg>
