<svg height="512pt" viewBox="-47 0 512 512.00075" width="512pt" xmlns="http://www.w3.org/2000/svg"><g fill-rule="evenodd"><path d="m208.488281 7.5c50.246094-.285156 100.660157 28.601562 115.992188 71.660156 34.492187-1.644531 63.398437 25 63.398437 58.535156 0 11.28125-3.257812 21.800782-8.925781 30.726563 18.25 10.09375 30.550781 29.140625 30.550781 50.96875 0 16.355469-6.886718 31.125-18.023437 41.753906 3.824219 9.667969 5.894531 20.070313 5.894531 30.925781 0 49.550782-43.277344 90.085938-96.160156 90.085938h-185.425782c-52.882812 0-96.160156-40.535156-96.160156-90.085938 0-10.855468 2.070313-21.257812 5.867188-30.925781-11.109375-10.628906-17.996094-25.398437-17.996094-41.753906 0-21.828125 12.300781-40.875 30.550781-50.96875-5.667969-8.925781-8.953125-19.445313-8.953125-30.726563 0-33.535156 28.933594-60.179687 63.421875-58.535156 15.332031-43.058594 65.746094-71.945312 115.96875-71.660156zm0 0" fill="#47a831"/><path d="m208.488281 7.5c-50.222656-.285156-100.636719 28.601562-115.96875 71.660156-34.492187-1.644531-63.425781 25-63.425781 58.535156 0 11.28125 3.285156 21.800782 8.953125 30.726563-18.25 10.09375-30.550781 29.140625-30.550781 50.96875 0 16.355469 6.886718 31.125 17.996094 41.753906-3.796876 9.667969-5.863282 20.070313-5.863282 30.925781 0 49.550782 43.273438 90.085938 96.15625 90.085938h20.121094c-23.4375-37.785156-37.011719-82.65625-37.011719-130.789062 0-108.765626 69.347657-200.894532 165.109375-232.332032-17.230468-7.539062-36.386718-11.648437-55.515625-11.535156zm0 0" fill="#178035"/><path d="m152.96875 197.449219c-10.996094-5.441407-24.316406-.933594-29.757812 10.09375-5.441407 10.996093-.90625 24.320312 10.089843 29.761719 10.996094 5.414062 24.316407.90625 29.757813-10.089844 5.441406-11 .90625-24.320313-10.089844-29.765625zm0 0" fill="#349ecf"/><path d="m244.507812 122.84375c-7.9375-3.914062-17.542968-.652344-21.453124 7.285156-3.914063 7.9375-.652344 17.546875 7.28125 21.457032 7.933593 3.941406 17.542968.679687 21.453124-7.257813 3.910157-7.933594.652344-17.574219-7.28125-21.484375zm0 0" fill="#349ecf"/><path d="m311.050781 210.121094c-10.996093-5.441406-24.316406-.90625-29.757812 10.089844-5.414063 11-.90625 24.324218 10.089843 29.765624 10.996094 5.441407 24.34375.90625 29.753907-10.089843 5.441406-11 .9375-24.320313-10.085938-29.765625zm0 0" fill="#349ecf"/><path d="m206.984375 469.664062c-9.636719 0-17.515625-7.878906-17.515625-17.488281v-84.472656l-41.289062-58.253906c-12.667969-17.828125 13.546874-35.6875 24.570312-19.957031l34.234375 48.871093 18.734375-26.757812c11.476562-16.382813 39.195312-.511719 24.570312 19.984375l-25.816406 36.113281v84.472656c-.003906 9.609375-7.882812 17.488281-17.488281 17.488281zm0 0" fill="#f5df87"/><path d="m189.46875 414.160156c-22.527344 2.441406-43.527344 9.894532-55.574219 23.332032-21.3125-2.695313-40.269531 13.859374-40.269531 35.460937v.054687c-16.523438.992188-29.617188 14.714844-29.617188 31.496094h281.671876c0-16.78125-13.089844-30.503906-29.613282-31.496094.3125-20.039062-16.777344-36.253906-36.613281-35.800781-8.984375-12.246093-30.609375-20.351562-54.980469-23.015625-11.394531-1.25-23.410156-1.304687-35.003906-.03125zm0 0" fill="#a66d30"/><path d="m133.894531 437.492188c-21.3125-2.695313-40.269531 13.859374-40.269531 35.460937v.054687c-16.523438.992188-29.617188 14.714844-29.617188 31.496094h88.988282c-3.710938-7.398437-5.75-15.394531-5.75-23.757812 0-24.09375 16.859375-45.238282 42.226562-57.203125 10.085938-4.734375 21.507813-8.019531 33.75-9.496094-11.023437-1.105469-22.558594-1.105469-33.75.113281-22.535156 2.441406-43.535156 9.894532-55.578125 23.332032zm0 0" fill="#6e3e0b"/></g><path d="m133.613281 189.214844c-7.523437 2.546875-13.605469 7.878906-17.121093 15.003906-7.261719 14.675781-1.210938 32.53125 13.496093 39.8125 4.210938 2.074219 8.675781 3.054688 13.078125 3.054688 10.964844 0 21.53125-6.082032 26.710938-16.546876 7.257812-14.675781 1.210937-32.535156-13.484375-39.808593-7.113281-3.519531-15.167969-4.058594-22.679688-1.515625zm22.722657 34.675781c-3.597657 7.273437-12.445313 10.273437-19.710938 6.695313-7.285156-3.605469-10.289062-12.453126-6.691406-19.726563 1.746094-3.535156 4.757812-6.179687 8.484375-7.441406 1.542969-.523438 3.136719-.78125 4.71875-.78125 2.230469 0 4.445312.515625 6.503906 1.53125 7.289063 3.609375 10.292969 12.457031 6.695313 19.722656zm0 0"/><path d="m247.820312 116.117188c-5.632812-2.777344-12.011718-3.195313-17.960937-1.175782-5.949219 2.019532-10.753906 6.238282-13.53125 11.871094-5.730469 11.636719-.9375 25.765625 10.675781 31.488281 3.296875 1.636719 6.847656 2.464844 10.425782 2.464844 2.527343 0 5.070312-.414063 7.539062-1.25 5.953125-2.015625 10.765625-6.230469 13.546875-11.871094 5.738281-11.648437.941406-25.789062-10.695313-31.527343.003907 0 .003907 0 0 0zm-2.753906 24.898437c-1.007812 2.042969-2.746094 3.566406-4.902344 4.296875-2.148437.726562-4.457031.570312-6.511718-.449219-4.214844-2.078125-5.953125-7.203125-3.871094-11.421875 1.003906-2.042968 2.742188-3.570312 4.898438-4.300781.898437-.304687 1.828124-.457031 2.75-.457031 1.289062 0 2.570312.296875 3.761718.882812 4.222656 2.082032 5.957032 7.21875 3.875 11.449219zm0 0"/><path d="m301.199219 259.789062c3.214843 0 6.445312-.53125 9.578125-1.59375 7.515625-2.554687 13.582031-7.878906 17.078125-14.988281 3.523437-7.113281 4.058593-15.175781 1.511719-22.691406-2.546876-7.519531-7.871094-13.597656-15-17.117187-7.109376-3.519532-15.167969-4.050782-22.691407-1.496094-7.511719 2.550781-13.585937 7.871094-17.109375 15-7.226562 14.683594-1.175781 32.535156 13.496094 39.796875 4.15625 2.050781 8.632812 3.089843 13.136719 3.089843zm-13.1875-36.25c1.746093-3.53125 4.761719-6.171874 8.488281-7.4375 1.550781-.527343 3.144531-.789062 4.734375-.789062 2.226563 0 4.4375.511719 6.488281 1.527344.003906 0 .003906 0 .007813.003906 3.53125 1.746094 6.175781 4.757812 7.4375 8.480469 1.261719 3.722656.996093 7.710937-.757813 11.25-1.730468 3.523437-4.734375 6.160156-8.457031 7.421875-3.722656 1.269531-7.722656 1-11.246094-.738282-7.273437-3.597656-10.273437-12.449218-6.695312-19.71875zm0 0"/><path d="m417 219.390625c0-21.273437-10.585938-41.179687-28.054688-53.535156 4.222657-8.753907 6.429688-18.359375 6.429688-28.160157 0-17.917968-7.234375-34.6875-20.375-47.214843-12.171875-11.609375-28.480469-18.324219-45.414062-18.851563-17.796876-41.886718-67.332032-71.628906-120.261719-71.628906-.53125 0-1.066407 0-1.59375 0-52.992188 0-102.519531 29.746094-120.316407 71.628906-16.945312.527344-33.257812 7.246094-45.441406 18.863282-13.140625 12.527343-20.378906 29.292968-20.378906 47.203124 0 9.785157 2.21875 19.390626 6.460938 28.164063-17.46875 12.355469-28.054688 32.261719-28.054688 53.53125 0 16.242187 5.949219 31.550781 16.847656 43.609375-3.132812 9.390625-4.71875 19.148438-4.71875 29.074219 0 53.804687 46.5 97.582031 103.65625 97.582031h66.1875v17.839844c-21.460937 3.273437-39.398437 10.96875-51.019531 22.242187-11.039063-.402343-21.851563 3.441407-30.195313 10.796875-7.65625 6.75-12.625 15.949219-14.140624 25.945313-14.910157 3.492187-26.445313 15.53125-29.375 30.527343h-15.167969c-4.140625 0-7.496094 3.355469-7.496094 7.496094s3.355469 7.496094 7.496094 7.496094h325.542969c4.140624 0 7.496093-3.355469 7.496093-7.496094s-3.355469-7.496094-7.496093-7.496094h-15.171876c-2.925781-14.972656-14.425781-26.992187-29.300781-30.507812-1.292969-9.035156-5.511719-17.414062-12.230469-24.082031-7.496093-7.441407-17.480468-11.929688-27.859374-12.621094-11.085938-12.214844-31.371094-19.109375-51.085938-22.144531v-17.996094h34.160156c4.140625 0 7.496094-3.355469 7.496094-7.496094s-3.355469-7.496094-7.496094-7.496094h-34.160156v-4.554687l24.421875-34.164063c5.824219-8.164062 7.125-17.289062 3.570313-25.035156-3.414063-7.433594-11.054688-12.730468-19.472657-13.496094-8.359375-.753906-15.980469 2.851563-20.914062 9.894532l-12.59375 17.988281-28.09375-40.101563c-4.566407-6.523437-11.617188-9.863281-19.351563-9.164062-8.609375.773438-16.527344 6.386719-20.171875 14.296875-3.492187 7.578125-2.507812 16.132813 2.695313 23.457031l11.082031 15.648438c2.394531 3.378906 7.070313 4.179687 10.449219 1.785156s4.179687-7.074219 1.785156-10.453125l-11.085938-15.65625c-2.105468-2.960937-2.542968-5.824219-1.308593-8.507813 1.371093-2.980468 4.691406-5.351562 7.898437-5.636718 2.363282-.226563 4.242188.710937 5.730469 2.832031l34.234375 48.871094c1.402344 2.003906 3.695312 3.195312 6.140625 3.195312s4.738281-1.195312 6.140625-3.199219l18.730469-26.753906c2.300781-3.28125 5.230469-3.738281 7.28125-3.5625 3.113281.28125 6.003906 2.21875 7.195312 4.816406 1.632813 3.550782-.269531 7.4375-2.144531 10.066407l-25.816406 36.113281c-.910156 1.273438-1.398438 2.796875-1.398438 4.359375v38.339844c-.089844-.003907-.179687-.007813-.269531-.011719-.539063-.03125-1.082031-.066406-1.621094-.089844-6.199219-.304687-12.25-.285156-18.113281.03125v-38.269531c0-1.550781-.484375-3.066406-1.382812-4.332031l-13.375-18.878906c-2.394532-3.378907-7.074219-4.179688-10.449219-1.785157-3.378907 2.394531-4.179688 7.074219-1.785157 10.453125l11.996094 16.929688v4.574218h-66.1875c-48.886718 0-88.660156-37.050781-88.660156-82.589843 0-9.671875 1.800781-19.152344 5.347656-28.183594 1.113282-2.832031.402344-6.054687-1.792968-8.15625-10.113282-9.679687-15.683594-22.585937-15.683594-36.339844 0-18.289062 10.222656-35.308593 26.683594-44.40625 1.808593-1 3.121093-2.703125 3.632812-4.707031.515625-2.003906.175781-4.128906-.933594-5.871094-5.09375-8.027344-7.789062-17.265625-7.789062-26.710937 0-13.773438 5.585937-26.683594 15.730468-36.351563 10.535157-10.042968 25.074219-15.398437 39.84375-14.695312 3.296876.175781 6.308594-1.863282 7.417969-4.972656 13.566407-38.109376 59.992188-66.683594 108.257813-66.683594.230468 0 .460937 0 .691406.003906.242188-.003906.480469-.003906.722656-.003906 48.960938 0 94.378906 27.960937 108.167969 66.683594 1.109375 3.109374 4.148437 5.140624 7.417969 4.972656 14.757812-.707032 29.289062 4.644531 39.816406 14.679687 10.140625 9.671875 15.726562 22.585938 15.726562 36.367188 0 9.476562-2.683593 18.710937-7.757812 26.710937-1.109375 1.746094-1.445312 3.871094-.9375 5.871094.515625 2.003906 1.828125 3.707031 3.636719 4.707031 16.460937 9.101563 26.683593 26.117188 26.683593 44.40625 0 13.761719-5.578124 26.667969-15.703124 36.332031-2.210938 2.105469-2.917969 5.34375-1.796876 8.183594 3.566407 8.996094 5.371094 18.472656 5.371094 28.164063 0 45.542969-39.773437 82.589843-88.660156 82.589843h-8.277344c-4.140625 0-7.496094 3.355469-7.496094 7.496094 0 4.144532 3.355469 7.5 7.496094 7.5h8.277344c57.152344 0 103.652344-43.777344 103.652344-97.585937 0-9.945313-1.589844-19.703125-4.734375-29.074219 10.910156-12.054688 16.863281-27.359375 16.863281-43.609375zm-143.59375 222.253906c1.445312 1.972657 3.714844 3.113281 6.214844 3.058594 7.632812-.191406 15.207031 2.871094 20.730468 8.355469 5.414063 5.375 8.332032 12.417968 8.21875 19.835937-.0625 4.007813 3.042969 7.359375 7.046876 7.597657 10.050781.605468 18.367187 7.386718 21.363281 16.515624h-264.273438c3-9.128906 11.316407-15.910156 21.367188-16.515624 3.957031-.234376 7.046875-3.574219 7.046875-7.539063 0-8.101563 3.480468-15.820313 9.554687-21.171875 6.09375-5.371094 14.214844-7.871094 22.277344-6.851562 2.445313.308593 4.882813-.601563 6.523437-2.4375 9.828126-10.96875 27.957032-18.34375 49.929688-20.835938.292969 0 .585938-.007812.882812-.042969 8.011719-.878906 16.417969-1.097656 24.71875-.664062.253907.015625.511719.03125.769532.046875 1.082031.0625 2.160156.132812 3.238281.21875.4375.035156.867187.070312 1.304687.109375.773438.066406 1.542969.140625 2.3125.222656 23.636719 2.441406 43.484376 10.164063 50.773438 20.097656zm0 0"/></svg>