<svg height="512" viewBox="0 0 512 512" width="512" xmlns="http://www.w3.org/2000/svg"><g id="filled_outline" data-name="filled outline"><path d="m133.535 193.277a8 8 0 0 1 -7.388-4.924l-7.857-18.859a40.892 40.892 0 0 0 -45.653-24.312 8 8 0 0 1 -3.137-15.69 56.945 56.945 0 0 1 63.56 33.849l7.857 18.857a8 8 0 0 1 -7.382 11.079z" fill="#a8a8a8"/><path d="m318.83 116.037 34.053 85.093 52.824-74.901-22.467 88.859 86.761-29.547-70.406 58.681 87.559 27.093-91.452 6.092 54.911 73.384-77.566-48.826 1.29 91.645-34.053-85.093-52.824 74.9 22.467-88.858-86.761 29.547 70.406-58.682-87.559-27.092 91.452-6.092-54.912-73.384 77.567 48.826z" fill="#fbb540"/><path d="m376.85 317.475q-15.705 3.135-31.23 7.01-15.57 3.87-30.94 8.47a689.653 689.653 0 0 0 -76.09 27.71 44.735 44.735 0 0 0 -13.6 9.23 103.987 103.987 0 1 1 -45.07-174.55 46.454 46.454 0 0 0 10.79 1.73l1.07.03q11.625.39 23.24.39a688.876 688.876 0 0 0 71.82-3.75q15.945-1.665 31.82-4.08 15.81-2.415 31.52-5.55z" fill="#3775a4"/><path d="m345.62 324.485q-15.57 3.87-30.94 8.47l-27.84-139.21q15.945-1.665 31.82-4.08z" fill="#2d6087"/><circle cx="136.996" cy="191.409" fill="#3775a4" r="23"/><g fill="#fbd699"><path d="m66.354 121.805a8 8 0 0 1 -7.836-6.433l-4.707-23.534a8 8 0 1 1 15.689-3.138l4.707 23.534a8.012 8.012 0 0 1 -7.853 9.572z"/><path d="m80.472 192.407a8 8 0 0 1 -7.836-6.433l-4.706-23.535a8 8 0 1 1 15.689-3.139l4.706 23.534a8 8 0 0 1 -6.276 9.413 8.1 8.1 0 0 1 -1.577.16z"/><path d="m51.092 132.024a7.963 7.963 0 0 1 -4.43-1.344l-19.97-13.314a8 8 0 0 1 8.875-13.312l19.97 13.313a8 8 0 0 1 -4.445 14.657z"/><path d="m23.991 154.751a8 8 0 0 1 -1.559-15.851l23.534-4.7a8 8 0 0 1 3.137 15.69l-23.535 4.706a8.093 8.093 0 0 1 -1.577.155z"/><path d="m44.434 185.275a8 8 0 0 1 -6.649-12.438l13.315-19.969a8 8 0 1 1 13.312 8.875l-13.312 19.969a7.993 7.993 0 0 1 -6.666 3.563z"/></g><path d="m224 344h-44.686l31.598-31.598-11.314-11.314-31.598 31.598v-44.686h-16v44.686l-31.598-31.598-11.314 11.314 31.598 31.598h-44.686v16h44.686l-31.598 31.598 11.314 11.314 31.598-31.598v44.686h16v-44.686l31.598 31.598 11.314-11.314-31.598-31.598h44.686z" fill="#ea9d2d"/><path d="m159.144 424a72.125 72.125 0 0 1 -70.581-57.889 71.959 71.959 0 1 1 70.581 57.889zm-54.891-61.026a56 56 0 1 0 8.319-42.045 56.069 56.069 0 0 0 -8.319 42.045z" fill="#da922a"/><circle cx="159.166" cy="351.988" fill="#da922a" r="16"/><path d="m67.932 121.647a8 8 0 0 0 6.275-9.414l-4.707-23.533a8 8 0 1 0 -15.689 3.139l4.707 23.534a7.986 7.986 0 0 0 9.414 6.275z"/><path d="m80.472 192.407a8.1 8.1 0 0 0 1.577-.157 8 8 0 0 0 6.276-9.413l-4.706-23.537a8 8 0 1 0 -15.689 3.136l4.706 23.535a8 8 0 0 0 7.836 6.436z"/><path d="m24.474 106.272a8 8 0 0 0 2.218 11.094l19.97 13.314a8 8 0 1 0 8.875-13.313l-19.97-13.313a8 8 0 0 0 -11.093 2.218z"/><path d="m16.155 148.317a8 8 0 0 0 7.836 6.434 8.093 8.093 0 0 0 1.577-.157l23.532-4.706a8 8 0 0 0 -3.137-15.69l-23.531 4.702a8 8 0 0 0 -6.277 9.417z"/><path d="m51.1 152.868-13.315 19.969a8 8 0 1 0 13.315 8.875l13.313-19.969a8 8 0 1 0 -13.313-8.875z"/><path d="m489.516 263.678-73.479-22.744 59.085-49.248a8 8 0 0 0 -7.7-13.719l-72.813 24.8 18.858-74.576a8 8 0 0 0 -14.293-6.572l-41.73 59.161a8.008 8.008 0 0 0 -5.911-4.542l-25.275-63.17a8 8 0 0 0 -15.427 3.084l.932 66.436q-6.783.972-13.614 1.809l-51.338-32.307a8 8 0 0 0 -10.666 11.563l18.46 24.674c-13.195.767-26.427 1.167-39.585 1.167-7.637 0-15.366-.129-23.006-.385l-1.022-.03a38.551 38.551 0 0 1 -8.936-1.444 111.559 111.559 0 0 0 -14.818-3.035 30.985 30.985 0 0 0 -35.3-23.768 56.961 56.961 0 0 0 -62.438-31.332 8 8 0 0 0 3.137 15.69 40.912 40.912 0 0 1 44.721 22.25 31.066 31.066 0 0 0 -11.3 26.1 112.013 112.013 0 0 0 -16 195.258 113.834 113.834 0 0 0 11.942 6.928 72.246 72.246 0 0 0 57.144 28.274c.191 0 .384-.013.576-.014.093 0 .185.014.28.014a7.986 7.986 0 0 0 .807-.041 71.827 71.827 0 0 0 58.265-32.026 72.713 72.713 0 0 0 6.223-11.462c1.811-1.563 3.584-3.178 5.3-4.863a36.6 36.6 0 0 1 11.167-7.594c15.029-6.494 30.372-12.469 45.863-17.877l-7.925 31.322a8 8 0 0 0 14.3 6.571l36.09-51.179q5.842-1.62 11.664-3.124l25.161 62.856a8 8 0 0 0 15.426-3.085l-.976-69.423a7.93 7.93 0 0 0 3.373-5.307l61.612 38.792a8 8 0 0 0 10.666-11.56l-46.083-61.584 76.749-5.11a8 8 0 0 0 1.834-15.625zm-154.2-84.9q-3.787.679-7.583 1.317l-.3-21.017zm-197.523 162.329a24.214 24.214 0 0 0 -1.249 2.893h-32.83a55.8 55.8 0 0 1 8.858-23.076c.671-1.007 1.381-1.977 2.107-2.93zm-11.7-34.333a55.8 55.8 0 0 1 22.1-9.7c1.27-.254 2.543-.448 3.815-.614v32.622a23.907 23.907 0 0 0 -2.612.991zm-13.492 76.3a55.68 55.68 0 0 1 -8.344-20.1c-.2-.989-.364-1.979-.508-2.969h32.823a24.024 24.024 0 0 0 1.227 2.89l-21.695 21.7q-1.768-.729-3.504-1.523zm39.4 8.559a95.027 95.027 0 0 1 -18.5-1.814l15.91-15.911a23.868 23.868 0 0 0 2.589.992zm8.734-31.8a8 8 0 1 1 6.277-9.413 7.953 7.953 0 0 1 -6.278 9.412zm10.287 29.908c-1.006.2-2.013.381-3.021.55v-16c.7-.276 1.384-.586 2.052-.925l13.1 13.1a96.751 96.751 0 0 1 -12.132 3.274zm-.948-59.127q-1.018-.522-2.073-.943v-33a55.792 55.792 0 0 1 22.23 8.723c1.012.674 1.987 1.387 2.944 2.117zm34.317-11.688a55.814 55.814 0 0 1 9.689 22.081c.2 1 .366 2 .511 2.994h-32.819c-.21-.6-.436-1.189-.691-1.766zm7.56 51.832a95.232 95.232 0 0 1 -13.112 8.766l-17.756-17.756c.261-.581.5-1.17.717-1.767h32.816a55.262 55.262 0 0 1 -2.666 10.756zm84.7-40.538c-.148.045-.3.089-.44.142-20.557 6.7-40.941 14.383-60.786 22.957q-2.2.951-4.312 2.108a72.51 72.51 0 0 0 -1.341-17.558 72 72 0 0 0 -141.209 28.236c.115.571.252 1.131.379 1.7a96 96 0 0 1 29-161.885 8 8 0 0 0 4.778-9.92 15 15 0 0 1 11.334-19.3 15 15 0 0 1 17.938 15.027 8 8 0 0 0 7.4 8.129 95.817 95.817 0 0 1 18.381 3.2 54.579 54.579 0 0 0 12.7 2.018l1.036.031c7.783.261 15.691.393 23.507.393 21.763 0 43.726-1.042 65.4-3.081l25 125.017q-4.389 1.36-8.768 2.785zm26.651-8.082c-.161.039-.32.085-.479.134-.669.189-1.338.371-2.006.562l-24.417-122.104c5.309-.623 10.623-1.307 15.909-2.051l23.983 119.929q-6.485 1.692-12.992 3.529zm34.143 7.734q3.987-.93 7.976-1.809l.316 22.526zm-5.61-15.121-23.7-118.512c5.263-.867 10.526-1.773 15.762-2.757l23.55 117.762c-5.2 1.101-10.416 2.277-15.615 3.506zm43.337-45.322a8 8 0 0 0 -5.872 12.771l29.046 38.816-37.324-23.5-19.071-95.365 25.43-36.052-11.892 47.026a8 8 0 0 0 10.335 9.534l45.908-15.636-37.249 31.047a8 8 0 0 0 2.756 13.788l46.335 14.343z"/></g></svg>