<?xml version="1.0" encoding="utf-8"?>
<!-- Generator: Adobe Illustrator 23.1.0, SVG Export Plug-In . SVG Version: 6.00 Build 0)  -->
<svg version="1.1" id="Capa_1" xmlns="http://www.w3.org/2000/svg" xmlns:xlink="http://www.w3.org/1999/xlink" x="0px" y="0px"
	 viewBox="0 0 512 512" style="enable-background:new 0 0 512 512;" xml:space="preserve">
<style type="text/css">
	.st0{fill:#428DC5;}
	.st1{fill:#3775A4;}
	.st2{fill:#273B90;}
	.st3{fill:#FFFFFF;stroke:#FFFFFF;stroke-miterlimit:10;}
	.st4{fill:#DC4D41;}
	.st5{fill:#C38325;}
	.st6{fill:#A8A8A8;}
	.st7{stroke:#FFFFFF;stroke-width:0.25;stroke-miterlimit:10;}
</style>
<g>
	<path class="st0" d="M92,17.1c9.6,0.1,8.7-1.4,8.7,5.8c0,0-8.7,0-8.7,0l0,0V17.1L92,17.1z"/>
	<path class="st1" d="M112.3,27.3c-13.1-0.2-11.6,1.6-11.6-5.8h11.6l-2.9,2.9L112.3,27.3z"/>
	<path class="st2" d="M128.3,68.8H56.5C70.2,59.1,82.2,47.2,92.4,34C102.6,47.2,114.6,59.1,128.3,68.8z"/>
	<path class="st3" d="M92.1,30.8c-0.5,12.2,2.5,24.3,8.7,34.8H83.4C89.6,55.1,92.5,43,92.1,30.8"/>
	<path class="st4" d="M127.6,101.3H56.5c5-13.5,4.3-22.6,4.4-34.8h62.4C123,78,123.2,90.5,127.6,101.3z"/>
	<path class="st3" d="M110.9,101.3c-6.2-10.6-9.1-22.7-8.7-34.8H83.3c0.5,12.2-2.5,24.3-8.7,34.8H110.9z"/>
	<path class="st3" d="M119.6,66.5c-0.5,12.2,2.5,24.3,8.7,34.8c0,0-8.7,0-8.7,0c-6.2-10.6-9.1-22.7-8.7-34.8H119.6z"/>
	<path class="st5" d="M100.7,101.3H83.3v-7.3L92,79.5C102.5,97.2,100.6,92.1,100.7,101.3z"/>
	<path class="st2" d="M88.9,98.1l1.6,3.2h-7.3c-0.1-8-0.3-5.1,4.4-8.7C87.6,94.5,88.1,96.4,88.9,98.1z"/>
	<path class="st2" d="M95.7,96.8l-2.3,4.5h7.3c-0.1-7.8,1-5.1-4.4-7.3l0,0C96.4,95,96.1,96,95.7,96.8z"/>
	<path class="st3" d="M57.2,101.3c6.2-10.6,9.1-22.7,8.7-34.8h8.7c0.4,12.2-2.4,23.9-8.7,34.8C66.1,101.5,57.3,101.2,57.2,101.3z"/>
	<path class="st2" d="M92,79.5c0.1,7.9,1.1,16.6-8.7,16C82.1,94.7,91.8,80.3,92,79.5z"/>
	<path class="st2" d="M92,79.5c-0.1,7.9-1.1,16.6,8.7,16C101.9,94.7,92.2,80.3,92,79.5z"/>
	<path class="st4" d="M57.2,66.5c0,0,8.7,0,8.7,0c0.2,4.4,0.3,8.4-4.4,8.7C56.2,74.8,57.3,69.8,57.2,66.5L57.2,66.5z"/>
	<path class="st2" d="M65.9,66.5c0,0,8.7,0,8.7,0c0.2,4.4,0.3,8.4-4.4,8.7C64.9,74.8,66,69.8,65.9,66.5L65.9,66.5z"/>
	<path class="st4" d="M74.6,66.5c0,0,8.7,0,8.7,0c0.2,4.4,0.3,8.4-4.4,8.7C73.6,74.8,74.7,69.8,74.6,66.5L74.6,66.5z"/>
	<path class="st2" d="M83.3,66.5c0,0,8.7,0,8.7,0c0.2,4.4,0.3,8.4-4.4,8.7C82.3,74.8,83.4,69.8,83.3,66.5L83.3,66.5z"/>
	<path class="st4" d="M92,66.5c0,0,8.7,0,8.7,0c0.2,4.4,0.3,8.4-4.4,8.7C91,74.8,92.1,69.8,92,66.5L92,66.5z"/>
	<path class="st2" d="M100.7,66.5c0,0,8.7,0,8.7,0c0.2,4.4,0.3,8.4-4.4,8.7C99.7,74.8,100.8,69.8,100.7,66.5L100.7,66.5z"/>
	<path class="st4" d="M109.4,66.5c0,0,8.7,0,8.7,0c0.2,4.4,0.3,8.4-4.4,8.7C108.4,74.8,109.5,69.8,109.4,66.5L109.4,66.5z"/>
	<path class="st2" d="M118.1,66.5c0,0,8.7,0,8.7,0c0.2,4.4,0.3,8.4-4.4,8.7C117.1,74.8,118.2,69.8,118.1,66.5L118.1,66.5z"/>
	<path class="st3" d="M118.1,66.5C105.9,53.4,99.7,42.6,92,31.6C109.6,75.7,113.3,65.2,118.1,66.5z"/>
	<path class="st3" d="M92,31.6c-6.9,10.2-17.6,26.2-26.1,34.8c0,0,6.8,0,7.2,0C83.4,54.8,86.8,44.2,92,31.6"/>
	<path class="st4" d="M100.5,42.2c-5.4,2.7-11.7,2.7-17.1,0c2.7-3,6-7.4,8.6-10.6C94.6,34.9,97.8,39.1,100.5,42.2z"/>
	<path class="st6" d="M92,34c-2.5-0.2-1.1-3.3-1.5-7c0.2-5.7-0.5-9.9,0.4-11c3.9-2,2.1,4.5,2.5,9.3C93.2,30.3,94.3,34,92,34z"/>
	<path class="st7" d="M129.7,100.8c-10-33.5,0.5-21.4-1.4-34.3c0-0.8-0.6-1.2-1.9-2.2c-13-9.8-22.2-19.2-32.6-32.8
		c-0.5-0.7-0.2-0.1-0.3-1.2c0-1.8,0-5.9,0-6h5.8c-0.3,5.3,2.7,4.3,8.1,4.4c6.5,0.3,8.3-0.5,4.1-4.4c7.9-6.6-6.7-3.8-9.3-4.4
		c0.3-4.6-2.1-4.4-6.4-4.4c-3.3,0.1-4.5-0.5-5.2,1.1c-0.3,0.6,0.1,9-0.1,13.1c0,1.1,0.1,1.3-0.1,1.4C80.2,44.8,69.4,55.5,56.3,65.3
		l0,0c-1.1,1.1-0.6,6.9,0,8c2.1,4.2,4.1,1.6,3.8,4.6c-0.6,26.6-11.6,24.9,4.2,24.9c10.6,0,31,0,45.9,0
		C122.4,102.3,131,104.1,129.7,100.8z M120.5,99.8c-4.1-7.1-6.8-15.1-7.7-23.3c2,0.4,4.1-0.3,5.4-1.9c1.3,8.6,3.3,17.5,7.7,25.2
		H120.5z M111.8,99.8c-4.1-7.1-6.8-15.1-7.7-23.3c2,0.4,4.1-0.3,5.4-1.9c1.3,8.6,3.3,17.5,7.7,25.2H111.8z M92.6,99.8
		c-1.6,0.7-2.4-3.1-3.2-4.1c0.3-0.5,2.1-1.6,2.6-2.8C96,97.2,94.1,95.6,92.6,99.8z M90.6,88c0,2.9-2.4,6.1-5.6,6l5.6-9.3V88z
		 M93.5,88v-3.3L99,94C96,94.2,93.5,91,93.5,88z M102.2,95.5c0.2-3.1-1.9-4.5-5.2-10.5c-3.1-4.8-4.1-8.7-6.3-6
		c-9.9,16.7-8.9,12.8-8.8,20.9h-4.8c4.1-7.5,6.6-15.7,7.4-24.2c2.4,1.6,5.6,1.2,7.6-1c2.2,2.6,6.4,2.7,8.7,0
		c1.3,8.6,3.3,17.5,7.7,25.2h-6.3V95.5z M68.3,99.8c4.1-7.5,6.6-15.7,7.4-24.2c1.7,1.1,3.9,1.3,5.8,0.4c-0.9,8.3-3.6,16.5-7.8,23.8
		C73.8,99.8,68.4,99.8,68.3,99.8z M59.6,99.8c4.1-7.5,6.6-15.7,7.4-24.2c1.7,1.1,3.9,1.3,5.8,0.4c-0.9,8.3-3.6,16.5-7.8,23.8
		C65.1,99.8,59.7,99.8,59.6,99.8z M63,76.4c0.4-0.1,0.7-0.2,1.1-0.4c-0.3,2.7-0.8,5.4-1.4,8.1C62.9,81.8,63,78.9,63,76.4z
		 M116.7,70.8c-1.8,6.1-7.1,1.8-5.8-2.9h5.8V70.8z M108,70.8c-1.8,6.1-7.1,1.8-5.8-2.9h5.8V70.8z M99.3,70.8
		c-1.8,6.1-7.1,1.8-5.8-2.9h5.8V70.8z M90.6,70.8c-1.8,6.1-7.1,1.8-5.8-2.9h5.8V70.8z M67.4,69.5v-1.6h5.8
		C74.2,76,66.6,74.8,67.4,69.5z M76.1,69.5v-1.6h5.8C82.9,76,75.3,74.8,76.1,69.5z M92,65h-6.3c2.9-5.3,5-10.9,6.3-16.8
		c1.3,5.9,3.4,11.5,6.3,16.8H92z M111.6,65c-5.2-6.2-9.5-13.1-12.7-20.5c4.7,6.3,10.3,14.7,16.1,20.5H111.6z M96.1,45.2
		c3,7.1,6.9,13.7,11.7,19.8c0,0-6.2,0-6.2,0c-3.4-6-5.9-12.7-7.1-19.5C95,45.4,95.5,45.3,96.1,45.2z M83.2,63.6
		c-0.2,2.4-5.7,1-7,1.4C89,48.7,86,44.4,89.6,45.5C88.5,51.8,86.3,58,83.2,63.6z M80,51.6c0.2,0,4.9-7.6,5.1-7.2
		C81.4,52.3,74.3,66.9,69.1,65C72.6,61,77,56.1,80,51.6z M122.9,84.2c-0.6-2.5-1.1-5.1-1.4-7.7C123.5,76.1,122.2,82.9,122.9,84.2z
		 M125.4,70.8c-1.8,6.1-7.1,1.8-5.8-2.9h5.8V70.8z M122.6,65c-0.8-0.1-4.2,0.3-3.9-0.1c-4.1-4.7-7.7-8.6-10.6-12.5
		C112.7,56.8,117.5,61.1,122.6,65z M108.8,22.9c-1,0.7-1.1,2.1,0,2.9h-6.7v-2.9H108.8z M99.3,21.4h-5.8v-2.9h5.8V21.4z M89.4,37.2
		L92,34c1.9,2.4,4.1,5.3,6.2,7.7c-4,1.4-8.3,1.4-12.3,0C87.1,40.2,88.3,38.7,89.4,37.2L89.4,37.2z M76,52.3
		C63.3,68,65.7,64.6,61.5,65C66.5,61.1,71.4,56.8,76,52.3z M58.6,70.8v-2.9h5.8C65.4,75.9,58.7,74.4,58.6,70.8z M84.8,99.8v-2.9
		c2.9-0.5,2.5,1.5,3.5,2.9H84.8z M95.8,99.8c1.9-3.6,0.7-2.9,3.5-2.9v2.9H95.8z"/>
</g>
</svg>
