<?xml version="1.0" encoding="iso-8859-1"?>
<!-- Generator: Adobe Illustrator 19.0.0, SVG Export Plug-In . SVG Version: 6.00 Build 0)  -->
<svg xmlns="http://www.w3.org/2000/svg" xmlns:xlink="http://www.w3.org/1999/xlink" version="1.1" id="Layer_1" x="0px" y="0px" viewBox="0 0 512 512" style="enable-background:new 0 0 512 512;" xml:space="preserve" width="512" height="512">
<g id="XMLID_1630_">
	<g id="XMLID_1631_">
		<g id="XMLID_1632_">
			<path id="XMLID_1633_" style="fill:#5AC034;" d="M380.86,226.959c0,31.92-11.58,51.12-29.42,61.37     c-11.89,6.84-26.57,9.7-42.45,9.7s-30.56-2.86-42.45-9.7c-17.84-10.25-29.42-29.45-29.42-61.37c0-30.15,10.33-65.17,26.5-89.87     c12.38-18.89,28.17-31.73,45.37-31.73c17.21,0,33,12.85,45.37,31.74C370.53,161.789,380.86,196.819,380.86,226.959z"/>
			<path id="XMLID_1634_" style="fill:#4DA32C;" d="M287.87,226.959c0,26.33-7.16,46.94-21.33,61.37     c-17.84-10.25-29.42-29.45-29.42-61.37c0-30.15,10.33-65.17,26.5-89.87c0.54,0.94,1.08,1.9,1.61,2.87     C279.41,165.859,287.87,198.379,287.87,226.959z"/>
			<path id="XMLID_1635_" style="fill:#4DA32C;" d="M380.86,226.959c0,31.92-11.58,51.12-29.42,61.37     c-14.16-14.43-21.33-35.04-21.33-61.37c0-28.58,8.47-61.1,22.65-87c0.53-0.97,1.06-1.92,1.6-2.86     C370.53,161.789,380.86,196.819,380.86,226.959z"/>
			<path id="XMLID_1636_" style="fill:#4DA32C;" d="M380.868,226.965c0,53.198-32.179,71.069-71.878,71.069     c-39.689,0-71.868-17.871-71.868-71.069c0-1.435,0.019-2.889,0.077-4.343c12.546,20.634,35.491,28.433,61.72,28.433     c39.689,0,71.868-17.861,71.868-71.069c0-3.283-0.125-6.615-0.366-9.995C377.046,188.508,380.868,208.641,380.868,226.965z"/>
		</g>
		<g id="XMLID_1637_">
			<path id="XMLID_1638_" style="fill:#5AC034;" d="M168.88,226.959c0,31.92-11.58,51.12-29.42,61.37     c-11.89,6.84-26.57,9.7-42.45,9.7c-39.69,0-71.87-17.86-71.87-71.07c0-53.2,32.18-121.6,71.87-121.6     c17.21,0,33,12.85,45.37,31.74C158.55,161.789,168.88,196.819,168.88,226.959z"/>
			<path id="XMLID_1639_" style="fill:#4DA32C;" d="M142.38,137.099c16.17,24.69,26.5,59.72,26.5,89.86     c0,31.92-11.58,51.12-29.42,61.37c-14.16-14.43-21.33-35.04-21.33-61.37c0-28.58,8.47-61.1,22.65-87     C141.31,138.989,141.84,138.039,142.38,137.099z"/>
			<path id="XMLID_1640_" style="fill:#4DA32C;" d="M168.887,226.965c0,53.198-32.179,71.069-71.878,71.069     c-39.689,0-71.868-17.871-71.868-71.069c0-1.435,0.019-2.889,0.077-4.343c12.546,20.634,35.491,28.433,61.72,28.433     c39.689,0,71.868-17.861,71.868-71.069c0-3.283-0.125-6.615-0.366-9.995C165.065,188.508,168.887,208.641,168.887,226.965z"/>
		</g>
		<g id="XMLID_1641_">
			<path id="XMLID_1642_" style="fill:#92E170;" d="M274.874,226.962c0,53.206-32.178,71.068-71.871,71.068     s-71.871-17.862-71.871-71.068s32.178-121.607,71.871-121.607S274.874,173.756,274.874,226.962z"/>
			<path id="XMLID_1643_" style="fill:#5AC034;" d="M274.878,226.965c0,53.198-32.179,71.069-71.878,71.069     c-39.689,0-71.868-17.871-71.868-71.069c0-1.435,0.019-2.889,0.077-4.343c12.546,20.634,35.491,28.433,61.72,28.433     c39.689,0,71.868-17.861,71.868-71.069c0-3.283-0.125-6.615-0.366-9.995C271.055,188.508,274.878,208.641,274.878,226.965z"/>
		</g>
		<g id="XMLID_1644_">
			<path id="XMLID_1645_" style="fill:#92E170;" d="M486.855,226.962c0,53.206-32.178,71.068-71.871,71.068     s-71.871-17.862-71.871-71.068s32.178-121.607,71.871-121.607S486.855,173.756,486.855,226.962z"/>
			<path id="XMLID_1646_" style="fill:#5AC034;" d="M486.859,226.965c0,53.198-32.179,71.069-71.878,71.069     c-39.689,0-71.868-17.871-71.868-71.069c0-1.435,0.019-2.889,0.077-4.343c12.546,20.634,35.491,28.433,61.72,28.433     c39.689,0,71.868-17.861,71.868-71.069c0-3.283-0.125-6.615-0.366-9.995C483.036,188.508,486.859,208.641,486.859,226.965z"/>
		</g>
		<g id="XMLID_1647_">
			<path id="XMLID_1953_" style="fill:#DD976D;" d="M482,406.645H30c-5.523,0-10-4.477-10-10V282.302c0-3.314,2.686-6,6-6h460     c3.314,0,6,2.686,6,6v114.343C492,402.168,487.523,406.645,482,406.645z"/>
			<g id="XMLID_1648_">
				<g id="XMLID_1649_">
					<path id="XMLID_1950_" style="fill:#A2C2CE;" d="M498.5,359.632h-485c-3.314,0-6-2.686-6-6v-24.586c0-3.314,2.686-6,6-6h485       c3.314,0,6,2.686,6,6v24.586C504.5,356.946,501.814,359.632,498.5,359.632z"/>
					<rect id="XMLID_1947_" x="78.5" y="323.046" style="fill:#84AFC4;" width="71" height="36.586"/>
					<rect id="XMLID_1944_" x="149.5" y="323.046" style="fill:#B8DAEF;" width="71" height="36.586"/>
					<rect id="XMLID_1936_" x="220.5" y="323.046" style="fill:#84AFC4;" width="71" height="36.586"/>
					<rect id="XMLID_1924_" x="291.5" y="323.046" style="fill:#4E768E;" width="71" height="36.586"/>
					<rect id="XMLID_1919_" x="362.5" y="323.046" style="fill:#84AFC4;" width="71" height="36.586"/>
					<path id="XMLID_1916_" style="fill:#B8DAEF;" d="M498.5,359.632h-65v-36.586h65c3.314,0,6,2.686,6,6v24.586       C504.5,356.946,501.814,359.632,498.5,359.632z"/>
				</g>
			</g>
		</g>
	</g>
	<path id="XMLID_1650_" d="M499.5,315.597v-33.295c0-7.444-6.056-13.5-13.5-13.5h-0.303c5.75-11.49,8.658-25.503,8.658-41.84   c0-23.56-6.031-50.343-16.547-73.48c-1.714-3.771-6.157-5.44-9.932-3.725c-3.771,1.714-5.438,6.16-3.725,9.931   c9.662,21.258,15.203,45.778,15.203,67.274c0,17.542-3.748,31.599-11.129,41.84H361.744c-7.381-10.241-11.13-24.299-11.13-41.84   c0-25.294,7.524-54.136,20.129-77.153c12.859-23.484,28.985-36.954,44.241-36.954c13.411,0,24.732,10.108,31.868,18.588   c2.666,3.169,7.397,3.576,10.567,0.91c3.169-2.667,3.576-7.398,0.909-10.567c-13.173-15.656-28.161-23.931-43.345-23.931   c-19.29,0-37.893,13.146-52.991,37.228c-15.074-24.104-33.619-37.228-53-37.228c-19.362,0-37.924,13.14-53.006,37.25   c-0.594-0.946-1.189-1.891-1.798-2.808c-14.96-22.533-32.66-34.443-51.186-34.443c-19.289,0-37.894,13.146-52.991,37.228   c-15.074-24.105-33.618-37.228-53-37.228c-18.199,0-35.649,11.538-50.462,33.367c-2.326,3.427-1.433,8.091,1.995,10.417   c3.429,2.327,8.091,1.433,10.417-1.995c6.79-10.005,20.761-26.79,38.05-26.79c15.489,0,31.667,13.676,44.592,37.604   c-11.325,23.649-17.972,51.618-17.972,76.503c0,16.337,2.908,30.35,8.658,41.84H43.772c-7.381-10.242-11.13-24.299-11.13-41.84   c0-17.79,3.818-37.849,10.752-56.481c1.444-3.882-0.532-8.2-4.414-9.645c-3.882-1.444-8.2,0.531-9.645,4.414   c-7.541,20.265-11.694,42.181-11.694,61.713c0,16.337,2.908,30.35,8.659,41.84H26c-7.444,0-13.5,6.056-13.5,13.5v33.295   C5.523,316.112,0,321.94,0,329.046v24.586c0,7.106,5.523,12.934,12.5,13.449v29.563c0,9.649,7.851,17.5,17.5,17.5h452   c9.649,0,17.5-7.851,17.5-17.5v-29.563c6.977-0.515,12.5-6.343,12.5-13.449v-24.586C512,321.94,506.477,316.112,499.5,315.597z    M370,352.132v-21.586h56v21.586H370z M299,352.132v-21.586h56v21.586H299z M228,352.132v-21.586h56v21.586H228z M157,352.132   v-21.586h56v21.586H157z M86,352.132v-21.586h56v21.586H86z M15,352.132v-21.586h56v21.586H15z M484.5,283.802v31.744h-457v-31.744   H484.5z M441,330.546h56v21.586h-56V330.546z M138.633,226.962c0-25.294,7.525-54.137,20.128-77.153   c12.86-23.484,28.986-36.954,44.242-36.954c13.073,0,26.813,9.852,38.689,27.739c11.533,17.371,20.231,40.693,23.863,63.985   c0.639,4.093,4.467,6.895,8.565,6.255c4.093-0.638,6.894-4.474,6.255-8.566c-2.802-17.974-8.424-36.01-15.974-51.803   c12.925-23.918,29.127-37.61,44.592-37.61c15.49,0,31.667,13.676,44.592,37.603c-11.325,23.649-17.972,51.618-17.972,76.503   c0,16.337,2.908,30.35,8.658,41.84h-70.579c4.334-8.658,7.06-18.75,8.132-30.153c0.388-4.124-2.641-7.781-6.765-8.169   c-4.126-0.391-7.781,2.641-8.169,6.766c-1.203,12.799-4.788,23.403-10.659,31.557H149.763   C142.381,258.56,138.633,244.503,138.633,226.962z M482,399.145h-41.5v-9.559c0-4.142-3.357-7.5-7.5-7.5s-7.5,3.358-7.5,7.5v9.559   h-12v-9.559c0-4.142-3.357-7.5-7.5-7.5s-7.5,3.358-7.5,7.5v9.559h-12v-9.559c0-4.142-3.357-7.5-7.5-7.5s-7.5,3.358-7.5,7.5v9.559   h-12v-9.559c0-4.142-3.357-7.5-7.5-7.5s-7.5,3.358-7.5,7.5v9.559H30c-1.378,0-2.5-1.122-2.5-2.5v-29.513h457v29.513   C484.5,398.023,483.379,399.145,482,399.145z"/>
</g>















</svg>
