<svg id="Layer_1" enable-background="new 0 0 512.061 512.061" height="512" viewBox="0 0 512.061 512.061" width="512" xmlns="http://www.w3.org/2000/svg"><path d="m85.73 256.014 54.17-84.504 51.433-20.496 46.363 5.049 32.023 49.408v299.463h-183.989z" fill="#d4d4d4"/><path d="m8.172 287.475 35.301-61.143c10.227-17.714 35.796-17.714 46.023 0l162.507 278.601h-243.831z" fill="#a3a3a3"/><path d="m504.5 265.014-16.131-27.701c-10.227-17.714-35.796-17.714-46.023 0l-39.096 67.201v200.419h101.25z" fill="#a3a3a3"/><path d="m488.369 237.313c-9.335-16.17-31.447-17.571-43.012-4.222 1.105 1.275 2.12 2.677 3.012 4.222l3.938 6.763c7.986 13.714 12.193 29.299 12.193 45.169v215.689h40v-239.92z" fill="#969696"/><path d="m100 504.934 147.558-259.953 63.109-38.3 57.193 26.785 136.64 240.252v31.216z" fill="#bfbfbf"/><path d="m367.859 233.466-57.192-26.785 7.019 8.897 146.814 258.14v31.216l40-.001v-31.215z" fill="#b5b5b5"/><path d="m153.195 504.934s152.224-98.521 351.305-71.6v71.6z" fill="#b3e897"/><path d="m414.434 429.046c9.817.368 19.78 1.011 29.877 1.968 11.447 1.085 20.189 10.718 20.189 22.216v51.703h40v-71.6c-31.319-4.235-61.476-5.371-90.066-4.287z" fill="#b3e897"/><path d="m90.291 110.195c11.357 0 20.563-9.207 20.563-20.564s-9.207-20.563-20.563-20.563c-1.11 0-2.199.091-3.262.26.16-1.215.252-2.452.252-3.711 0-15.521-12.582-28.103-28.103-28.103s-28.104 12.583-28.104 28.104c0 1.259.091 2.496.252 3.711-1.063-.169-2.152-.26-3.262-.26-11.357-.001-20.564 9.206-20.564 20.563s9.207 20.564 20.563 20.564h62.228z" fill="#d2f6ff"/><path d="m483.937 172.805c11.357 0 20.563-9.207 20.563-20.564s-9.207-20.563-20.563-20.563c-1.11 0-2.199.091-3.262.26.16-1.215.252-2.452.252-3.711 0-15.521-12.582-28.103-28.103-28.103s-28.103 12.582-28.103 28.103c0 1.259.091 2.496.252 3.711-1.063-.169-2.152-.26-3.262-.26-11.357 0-20.563 9.207-20.563 20.563 0 11.357 9.207 20.564 20.563 20.564z" fill="#d2f6ff"/><path d="m199 504.934-62.775-96.543c-9.612-14.831-31.316-14.831-40.929 0l-62.301 96.543z" fill="#d4d4d4"/><circle cx="322.032" cy="48.012" fill="#ffe563" r="40.498"/><path d="m322.032 7.515c-7.277 0-14.098 1.929-20 5.288 12.239 6.967 20.498 20.12 20.498 35.21s-8.259 28.243-20.498 35.21c5.902 3.36 12.723 5.288 20 5.288 22.366 0 40.498-18.132 40.498-40.498 0-22.367-18.132-40.498-40.498-40.498z" fill="#ffd414"/><path d="m180.939 181.653 7.435-11.868c4.503-7.189 14.401-8.578 20.71-2.907 5.515 4.958 13.978 4.61 19.068-.783l9.544-10.031-23.612-36.431c-9.612-14.831-31.316-14.831-40.928 0l-33.256 51.877 22.049 14.365c6.4 4.135 14.945 2.235 18.99-4.222z" fill="#f2f8fa"/><path d="m279.567 253.962 10.363-16.412c2.637-4.177 8.183-5.387 12.321-2.689 3.983 2.598 9.307 1.584 12.057-2.295 3.064-5.141 10.229-8.287 15.14-3.171l14.578 15.189c3.39 3.532 9.004 3.642 12.529.244l11.305-11.362-31.53-55.438c-11.282-19.54-39.486-19.54-50.767 0l-38.005 66.953 20.007 11.868c4.123 2.446 9.443 1.165 12.002-2.887z" fill="#f2f8fa"/><path d="m336.33 178.028c-9.767-16.917-32.211-19.176-45.384-6.801 2.042 1.919 3.869 4.178 5.384 6.801l27.701 48.707c1.978.215 3.905 1.086 5.416 2.66l14.578 15.189c3.39 3.532 9.004 3.642 12.529.244l11.305-11.362z" fill="#e4f2f2"/><path d="m28.063 117.695h62.228c15.475 0 28.063-12.589 28.063-28.063 0-14.014-10.324-25.662-23.768-27.735-1.866-17.889-17.035-31.882-35.41-31.882-18.374 0-33.543 13.993-35.409 31.882-13.443 2.073-23.767 13.721-23.767 27.735 0 15.474 12.589 28.063 28.063 28.063zm0-41.127c8.269 0 10.511-2.983 10.511-10.951 0-11.36 9.242-20.603 20.603-20.603s20.603 9.243 20.603 20.604c0 7.969 2.241 10.951 10.511 10.951 7.203 0 13.063 5.86 13.063 13.063s-5.86 13.063-13.063 13.063h-62.228c-7.203 0-13.063-5.86-13.063-13.063s5.86-13.064 13.063-13.064z"/><path d="m421.709 180.306h24.018c9.697 0 9.697-15 0-15h-24.018c-7.203 0-13.063-5.86-13.063-13.063s5.86-13.063 13.063-13.063c8.27 0 10.511-2.981 10.511-10.951 0-11.36 9.243-20.603 20.604-20.603s20.603 9.243 20.603 20.603c0 7.967 2.242 10.951 10.511 10.951 7.203 0 13.063 5.86 13.063 13.063s-5.86 13.063-13.063 13.063c-9.697 0-9.697 15 0 15 15.475 0 28.063-12.589 28.063-28.063 0-14.014-10.324-25.662-23.768-27.735-1.866-17.889-17.035-31.882-35.409-31.882-18.375 0-33.544 13.993-35.41 31.882-13.443 2.074-23.768 13.721-23.768 27.735 0 15.473 12.588 28.063 28.063 28.063z"/><path d="m465.357 231.528c6.895 0 13.069 3.564 16.53 9.559l16.131 27.702c4.88 8.379 17.843.833 12.963-7.548l-16.117-27.678c-12.87-22.29-46.135-22.305-59.014 0l-29.686 51.417-63.34-110.702c-13.942-24.149-49.801-24.171-63.758 0l-9.718 16.832-48.971-75.557c-12.347-19.05-41.23-18.959-53.557.063l-69.394 109.452c-12.033-23.471-46.781-26.157-60.448-2.485l-35.301 61.142c-4.849 8.398 8.141 15.897 12.99 7.5l35.301-61.143c7.135-12.359 25.847-12.448 33.033 0l36.192 62.688c4.69 8.127 17.828.878 12.99-7.5l-26.322-45.592c.165-.208.327-.419.473-.648l36.053-56.864 15.492 10.008c9.71 6.275 23.271 3.269 29.416-6.54l7.436-11.868c2.014-3.218 6.516-3.849 9.339-1.312 8.614 7.744 21.588 7.212 29.536-1.212l2.959-3.135 24.363 37.59-87.343 151.283-22.482-38.94c-4.85-8.398-17.839-.898-12.99 7.5l26.813 46.44-20.429 35.384-1.978-3.051c-12.311-18.995-41.199-19.003-53.516 0l-62.302 96.124c-2.253 3.476-1.261 8.12 2.215 10.373 1.261.817 2.674 1.208 4.072 1.208 2.457 0 4.864-1.206 6.301-3.422l62.302-96.124c6.486-10.01 21.817-10.067 28.34 0l45.929 70.863c-16.764 8.502-26.111 14.48-26.727 14.877-7.92 5.103.037 17.81 8.122 12.61.945-.608 96.039-60.9 231.422-72.658 9.659-.839 8.363-15.792-1.299-14.943-72.752 6.318-133.55 26.312-171.743 41.972-9.72 3.985-18.466 7.877-26.196 11.513l-35.782-55.207 96.118-166.481 13.965 8.284c7.42 4.403 17.545 1.989 22.169-5.333l10.363-16.413c.512-.661 1.139-.798 1.881-.411 7.39 4.819 17.171 2.957 22.274-4.24.391-1.049 2.236-3.746 3.609-2.314l14.578 15.189c6.189 6.448 16.711 6.649 23.146.45l4.667-4.497 100.951 176.436c-12.784-.786-25.632-1.113-38.457-.978-9.478.101-9.099 15.164.16 14.999 24.939-.263 49.981 1.274 74.415 4.579 9.345 1.272 11.408-13.595 2.01-14.864-6.637-.897-13.318-1.66-20.027-2.304l-70.692-123.551 34.055-58.985c3.446-5.973 9.621-9.537 16.515-9.537zm-242.661-70.581c-2.313 2.453-6.092 2.606-8.599.353-9.537-8.575-25.248-6.402-32.079 4.503l-7.435 11.868c-2.324 3.023-5.179 3.657-8.564 1.904l-15.6-10.078 29.029-45.786c6.487-10.01 21.817-10.067 28.341 0l20.377 31.439zm128.654 78.481c-.648.517-1.286.505-1.913-.037l-14.578-15.189c-7.01-7.301-19.285-6.391-25.139 1.867-.351.869-2.074 3.356-3.373 2.51-7.55-4.924-17.946-2.655-22.759 4.967l-10.363 16.413c-.394.623-1.199.817-1.833.44l-14.117-8.374 34.783-60.246c8.241-14.274 29.512-14.316 37.763-.025l28.922 50.549z"/><path d="m322.032 96.011c26.466 0 47.998-21.532 47.998-47.998s-21.532-47.998-47.998-47.998-47.998 21.532-47.998 47.998 21.532 47.998 47.998 47.998zm0-80.996c18.195 0 32.998 14.803 32.998 32.998s-14.803 32.998-32.998 32.998-32.998-14.803-32.998-32.998 14.803-32.998 32.998-32.998z"/></svg>