<svg id="Layer_1" enable-background="new 0 0 128 128" height="512" viewBox="0 0 128 128" width="512" xmlns="http://www.w3.org/2000/svg"><path d="m111.498 115.217h-12.782c-.788 0-1.522-.388-1.967-1.037l-24.409-35.679c0-.017.005-.033.005-.05v-1.21c0-1.795-1.461-3.255-3.256-3.255h-1.362v-27.261h1.362c1.795 0 3.256-1.46 3.256-3.255v-1.21c0-.624-.185-1.202-.491-1.698.599-.348 1.084-.883 1.368-1.569.513-1.239.242-2.599-.706-3.546l-25.05-25.05c-1.23-1.23-3.373-1.23-4.604 0l-25.049 25.05c-.948.948-1.219 2.307-.706 3.546.288.696.783 1.237 1.394 1.584-.3.493-.483 1.065-.483 1.683v1.21c0 1.795 1.461 3.255 3.256 3.255h1.361v27.262h-1.361c-1.795 0-3.256 1.46-3.256 3.255v1.21c0 1.795 1.461 3.256 3.256 3.256h1.361v37.498c0 1.795 1.461 3.255 3.256 3.255h2.957c1.795 0 3.256-1.46 3.256-3.255v-37.498h26.154v37.498c0 1.795 1.461 3.255 3.256 3.255h2.957c1.795 0 3.255-1.46 3.255-3.255v-34.648l24.629 36.001c.813 1.189 2.16 1.903 3.602 1.908l15.528.058h.012c2.095 0 3.651-1.274 3.651-3.657 0-2.013-1.637-3.651-3.65-3.651z" fill="#e6e7e8"/><path d="m107.498 112.217h-12.783c-1.117 0-2.162-.551-2.792-1.473l-24.611-35.974c-.156 1.094-1.087 1.938-2.223 1.938h-2.785l26.877 39.287c.628.918 1.667 1.469 2.78 1.473l15.528.057c1.467.005 2.66-1.183 2.66-2.65v-.007c-.001-1.464-1.188-2.651-2.651-2.651z" fill="#0089ef"/><path d="m19.636 41.725h43.091v29.262h-43.091z" fill="#ffd7e5"/><path d="m19.636 76.707v38.498c0 1.246 1.01 2.255 2.255 2.255h2.957c1.246 0 2.255-1.01 2.255-2.255v-38.498z" fill="#0089ef"/><path d="m55.259 76.707v38.498c0 1.246 1.01 2.255 2.255 2.255h2.957c1.246 0 2.255-1.01 2.255-2.255v-38.498z" fill="#0089ef"/><path d="m67.808 32.154-25.049-25.049c-.881-.881-2.309-.881-3.19 0l-25.049 25.049c-1.421 1.421-.415 3.85 1.595 3.85h50.098c2.01.001 3.016-2.429 1.595-3.85z" fill="#fa759e"/><path d="m65.089 70.987h-47.815c-1.246 0-2.255 1.01-2.255 2.255v1.21c0 1.246 1.01 2.255 2.255 2.255h47.815c1.246 0 2.255-1.01 2.255-2.255v-1.21c0-1.245-1.01-2.255-2.255-2.255z" fill="#0089ef"/><path d="m65.089 36.005h-47.815c-1.246 0-2.255 1.01-2.255 2.255v1.21c0 1.246 1.01 2.255 2.255 2.255h47.815c1.246 0 2.255-1.01 2.255-2.255v-1.21c0-1.246-1.01-2.255-2.255-2.255z" fill="#0089ef"/><path d="m41.181 46.749c-5.778 0-10.461 4.684-10.461 10.461v13.777h20.922v-13.777c0-5.778-4.683-10.461-10.461-10.461z" fill="#fa759e"/><path d="m41.181 46.749c-5.778 0-10.461 4.684-10.461 10.461v3c0-5.778 4.684-10.461 10.461-10.461 5.777 0 10.461 4.684 10.461 10.461v-3c0-5.778-4.683-10.461-10.461-10.461z" fill="#fff"/><g fill="#3a2c60"><path d="m107.498 111.217h-12.782c-.788 0-1.522-.388-1.967-1.037l-24.41-35.679c0-.017.005-.033.005-.05v-1.21c0-1.795-1.461-3.255-3.256-3.255h-1.362v-27.261h1.362c1.795 0 3.256-1.46 3.256-3.255v-1.21c0-.624-.185-1.202-.491-1.697.599-.348 1.083-.882 1.368-1.568.513-1.239.242-2.599-.706-3.547l-25.05-25.05c-1.228-1.229-3.372-1.231-4.604 0l-25.049 25.05c-.948.948-1.219 2.308-.706 3.547.288.696.783 1.236 1.394 1.583-.3.493-.483 1.065-.483 1.683v1.21c0 1.795 1.461 3.255 3.256 3.255h1.361v27.262h-1.361c-1.795 0-3.256 1.46-3.256 3.255v1.21c0 1.795 1.461 3.256 3.256 3.256h1.361v37.498c0 1.795 1.461 3.255 3.256 3.255h2.957c1.795 0 3.256-1.46 3.256-3.255v-14.554c0-.553-.447-1-1-1s-1 .447-1 1v14.554c0 .692-.563 1.255-1.256 1.255h-2.957c-.692 0-1.256-.562-1.256-1.255v-37.5h5.469v9.277c0 .553.447 1 1 1s1-.447 1-1v-9.277h26.154v37.498c0 1.795 1.461 3.255 3.256 3.255h2.957c1.795 0 3.255-1.46 3.255-3.255v-34.647l24.629 36.001c.813 1.189 2.16 1.903 3.602 1.908l15.528.058h.012c.974 0 1.889-.378 2.578-1.065.692-.689 1.073-1.607 1.073-2.592.001-2.013-1.636-3.651-3.649-3.651zm-56.856-41.23h-18.921v-12.778c0-5.217 4.244-9.461 9.461-9.461s9.461 4.244 9.461 9.461v12.778zm-35.415-37.125 25.049-25.05c.237-.237.553-.367.888-.367.336 0 .65.13.888.367l25.05 25.05c.55.55.348 1.186.272 1.367-.076.183-.382.775-1.16.775h-1.125-47.815-1.159c-.778 0-1.084-.593-1.16-.775-.075-.182-.277-.817.272-1.367zm.791 6.608v-1.21c0-.692.563-1.256 1.256-1.256h47.814c.692 0 1.256.563 1.256 1.256v1.21c0 .692-.563 1.255-1.256 1.255h-47.814c-.692 0-1.256-.562-1.256-1.255zm4.618 3.255h41.091v27.262h-9.084v-12.778c0-6.319-5.142-11.461-11.461-11.461s-11.461 5.142-11.461 11.461v12.777h-9.085zm-4.618 31.727v-1.21c0-.692.563-1.255 1.256-1.255h47.814c.692 0 1.256.562 1.256 1.255v1.21c0 .692-.563 1.256-1.256 1.256h-47.814c-.692-.001-1.256-.564-1.256-1.256zm45.708 40.754c0 .692-.562 1.255-1.255 1.255h-2.957c-.692 0-1.256-.562-1.256-1.255v-37.499h5.468zm46.937.837c-.312.311-.726.481-1.165.481-.002 0-.004 0-.006 0l-15.527-.058c-.784-.003-1.517-.391-1.959-1.037l-25.807-37.722h.89c.918 0 1.745-.385 2.338-.999l23.672 34.601c.816 1.195 2.169 1.908 3.617 1.908h12.782c.91 0 1.65.74 1.65 1.657 0 .442-.172.857-.485 1.169z"/><path d="m27.104 89.818c-.553 0-1 .447-1 1v6.267c0 .553.447 1 1 1s1-.447 1-1v-6.267c0-.553-.447-1-1-1z"/></g></svg>