<?xml version="1.0" encoding="utf-8"?>
<!-- Generator: Adobe Illustrator 23.1.0, SVG Export Plug-In . SVG Version: 6.00 Build 0)  -->
<svg version="1.1" id="Fill_Outline" xmlns="http://www.w3.org/2000/svg" xmlns:xlink="http://www.w3.org/1999/xlink" x="0px"
	 y="0px" viewBox="0 0 34.8 21.1" style="enable-background:new 0 0 34.8 21.1;" xml:space="preserve">
<style type="text/css">
	.st0{fill:#E67C32;}
	.st1{fill:#F9A236;}
	.st2{fill:#D85E27;}
</style>
<path class="st0" d="M9.3,17.7l5.4-1.5l1-11.1l-5.1-1C6.9,3.4,2.9,5.9,1.7,9.7s0.7,7.5,4.4,8.1C7.1,18,8.2,18,9.3,17.7z M6.6,13.1
	c-1-0.8-1.1-2.4-0.1-3.6c0.7-0.8,1.7-1.2,2.7-1l5.1,1l-0.2,2.5l-5.4,1.5C7.9,13.7,7.1,13.5,6.6,13.1z"/>
<path class="st1" d="M33.5,9.6C33.9,5.7,31,2.8,27.2,3c-0.5,0-1.1,0.1-1.6,0.3l-5.4,1.5l-1,11.1l5.1,1c3.7,0.7,7.7-1.8,8.9-5.6
	C33.3,10.7,33.5,10.2,33.5,9.6z M25.7,12.5l-5.1-1L20.8,9l5.4-1.5c1.4-0.4,2.7,0.4,2.9,1.7c0.2,1.4-0.8,2.8-2.2,3.2
	C26.5,12.6,26.1,12.6,25.7,12.5z"/>
<path class="st1" d="M20.2,4.3l-1.1,12.2c-0.1,0.6-0.6,1.1-1.2,1.2l0,0c-0.6,0-1.1-0.4-1-1L18,4.4c0.1-0.6,0.6-1.1,1.2-1.2h0
	C19.8,3.2,20.3,3.7,20.2,4.3z"/>
<path class="st0" d="M22.4,4.1l-1.1,12.2c-0.1,0.6-0.6,1.1-1.2,1.2l0,0c-0.6,0-1.1-0.4-1-1l1.1-12.2c0.1-0.6,0.6-1.1,1.2-1.2l0,0
	C22,3.1,22.5,3.5,22.4,4.1z"/>
<path class="st0" d="M18,4.4l-1.1,12.2c-0.1,0.6-0.6,1.1-1.2,1.2l0,0c-0.6,0-1.1-0.4-1-1l1.1-12.2c0.1-0.6,0.6-1.1,1.2-1.2l0,0
	C17.6,3.3,18,3.8,18,4.4z"/>
<path class="st1" d="M15.8,4.5l-1.1,12.2c-0.1,0.6-0.6,1.1-1.2,1.2l0,0c-0.6,0-1.1-0.4-1-1l1.1-12.2c0.1-0.6,0.6-1.1,1.2-1.2l0,0
	C15.4,3.4,15.8,3.9,15.8,4.5z"/>
<path class="st2" d="M22,8.6c2.5-0.1,4.6-2.2,4.9-4.7c0,0,0,0,0,0l0.3-2.8l-2.2,0.1L24.6,4c-0.1,1.2-1.2,2.3-2.4,2.3L22,8.6z"/>
<path class="st2" d="M12.8,12.4C10.4,12.5,8.2,14.6,8,17c0,0,0,0,0,0l-0.3,2.8l2.2-0.1l0.3-2.8c0.1-1.2,1.2-2.3,2.4-2.3L12.8,12.4z"
	/>
<path d="M32.8,4.9c-1-1.2-2.4-2.1-4-2.3l-0.3,1.1c1.4,0.2,2.6,0.9,3.4,2c2,2.6,1.3,6.7-1.7,9.1c-1.7,1.4-3.8,2-5.7,1.6l-2.5-0.5
	l0.1-1.1l2.8,0.5c2.8,0.5,5.9-1.4,6.8-4.3c0.7-2,0.1-4.1-1.4-5.3c-0.6-0.5-1.4-0.8-2.2-0.9l-0.3,1.1c2.3,0.3,3.6,2.4,2.9,4.8
	s-3,3.9-5.3,3.6c-0.1,0-0.1,0-0.2,0l-3-0.6l0.1-1.1l3.3,0.6c1.6,0.3,3.4-0.8,4-2.5s-0.3-3.3-2-3.6c-0.1,0-0.2,0-0.3,0L27,8
	c1.1,0.1,1.8,1,1.5,2.2c-0.2,1.1-1.3,1.9-2.4,1.9c-0.1,0-0.2,0-0.2,0l-3.5-0.7l0.2-2.2c2.6-0.4,4.7-2.7,4.9-5.2l0.2-1.7
	c0.1-0.9-0.6-1.6-1.5-1.6c-0.9,0.1-1.7,0.8-1.8,1.7l-0.1,0.7l-1.3,0.4c-0.3-0.8-1.2-1.1-2.1-0.7c-0.2,0.1-0.3,0.2-0.5,0.3
	c-0.6-0.6-1.5-0.5-2.2,0.1c-0.6-0.5-1.6-0.5-2.2,0.1c-0.3-0.3-0.6-0.4-1.1-0.4c-0.7,0-1.3,0.5-1.6,1.1l-2.4-0.5
	c-4-0.7-8.3,2-9.6,6.1c-0.8,2.3-0.4,4.7,0.9,6.5c0.1,0.2,0.3,0.3,0.4,0.5c0.9,1,2.2,1.6,3.6,1.9l0.3-1.1c-1.4-0.2-2.6-0.9-3.4-2
	c-2-2.6-1.3-6.7,1.7-9.1c1.7-1.4,3.8-2,5.7-1.6L13,5.1l-0.1,1.1l-2.8-0.5C7.3,5.2,4.2,7.1,3.3,10c-0.6,1.8-0.2,3.7,1,4.9
	c0.1,0.1,0.3,0.3,0.4,0.4c0.6,0.5,1.4,0.8,2.2,0.9l0.3-1.1c-2.3-0.3-3.6-2.4-2.9-4.8c0.7-2.3,3-3.9,5.3-3.6c0.1,0,0.1,0,0.2,0l3,0.6
	l-0.1,1.1L9.3,7.9c-1.6-0.3-3.4,0.8-4,2.5c-0.4,1.1-0.1,2.2,0.6,2.9c0.1,0.1,0.2,0.2,0.2,0.2c0.4,0.3,0.9,0.5,1.5,0.6L7.9,13
	c-1.1-0.1-1.8-1-1.5-2.2C6.6,9.7,7.7,8.9,8.8,9C8.8,9,8.9,9,9,9l3.5,0.7l-0.2,2.2c-2.6,0.4-4.7,2.6-4.9,5.2l-0.2,1.7
	c-0.1,0.9,0.6,1.6,1.5,1.6c0.9-0.1,1.7-0.8,1.8-1.7l0.1-0.7l1.3-0.4c0.3,0.8,1.2,1.1,2.1,0.7c0.2-0.1,0.3-0.2,0.5-0.3
	c0.6,0.5,1.5,0.5,2.2-0.1c0.6,0.5,1.5,0.5,2.2-0.1c0.3,0.3,0.7,0.4,1.1,0.4c0.7,0,1.3-0.5,1.6-1.1l2.4,0.5c4,0.7,8.3-2,9.6-6.1
	c0.2-0.6,0.3-1.2,0.4-1.8C34.2,7.8,33.8,6.1,32.8,4.9L32.8,4.9z M26,1.8c0.3,0,0.5,0.2,0.5,0.5l-0.2,1.7c-0.2,1.9-1.7,3.6-3.7,4
	l0.1-1.1C24,6.5,25.1,5.3,25.2,4l0.2-1.7C25.4,2,25.7,1.8,26,1.8L26,1.8z M23.5,5.3c-0.2,0.2-0.4,0.3-0.7,0.4l0.1-1.1l1.1-0.3
	C24,4.6,23.8,5,23.5,5.3z M8.9,19.2c-0.3,0-0.5-0.2-0.5-0.5L8.5,17c0.2-1.9,1.7-3.6,3.7-4l-0.1,1.1c-1.3,0.3-2.4,1.5-2.5,2.8
	l-0.2,1.7C9.5,18.9,9.2,19.2,8.9,19.2z M11.3,15.7c0.2-0.2,0.4-0.3,0.7-0.4l-0.1,1.1l-1.1,0.3C10.9,16.3,11.1,16,11.3,15.7
	L11.3,15.7z M13.5,17.3c-0.3,0-0.5-0.2-0.5-0.5c0,0,0,0,0,0l1.1-12.2c0-0.3,0.3-0.6,0.6-0.6c0,0,0,0,0,0c0.3,0,0.5,0.2,0.5,0.5
	l-1.1,12.2C14,17,13.8,17.3,13.5,17.3C13.5,17.3,13.5,17.3,13.5,17.3z M15.7,17.2c-0.3,0-0.5-0.2-0.5-0.5l1.1-12.2
	c0-0.3,0.3-0.6,0.6-0.6c0.3,0,0.5,0.2,0.5,0.5l-1.1,12.2C16.3,16.9,16,17.2,15.7,17.2L15.7,17.2z M17.9,17.1c-0.3,0-0.5-0.2-0.5-0.5
	l1.1-12.2c0-0.3,0.3-0.6,0.6-0.6c0.3,0,0.5,0.2,0.5,0.5l-1.1,12.2C18.5,16.8,18.2,17,17.9,17.1L17.9,17.1z M20.1,16.9
	c-0.3,0-0.5-0.2-0.5-0.5l1.1-12.2c0-0.3,0.3-0.6,0.6-0.6c0.3,0,0.5,0.2,0.5,0.5l-1.1,12.2C20.7,16.7,20.4,16.9,20.1,16.9
	C20.1,16.9,20.1,16.9,20.1,16.9L20.1,16.9z"/>
</svg>
