<?xml version="1.0" encoding="utf-8"?>
<!-- Generator: Adobe Illustrator 23.1.0, SVG Export Plug-In . SVG Version: 6.00 Build 0)  -->
<svg version="1.1" xmlns="http://www.w3.org/2000/svg" xmlns:xlink="http://www.w3.org/1999/xlink" x="0px" y="0px"
	 viewBox="0 0 512 512" style="enable-background:new 0 0 512 512;" xml:space="preserve">
<style type="text/css">
	.st0{fill:#F9D980;stroke:#1D1D1B;stroke-miterlimit:10;}
	.st1{fill:#FFE7B3;}
	.st2{fill:none;stroke:#1D1D1B;stroke-width:0.75;stroke-miterlimit:10;}
	.st3{fill:#4F8722;stroke:#1D1D1B;stroke-width:0.75;stroke-miterlimit:10;}
	.st4{fill:#FFFFFF;stroke:#1D1D1B;stroke-width:0.75;stroke-miterlimit:10;}
	.st5{fill:#1D1D1B;stroke:#1D1D1B;stroke-width:0.75;stroke-miterlimit:10;}
	.st6{fill:#F42F2E;stroke:#1D1D1B;stroke-width:0.75;stroke-miterlimit:10;}
	.st7{fill:#69B42D;stroke:#1D1D1B;stroke-width:0.75;stroke-miterlimit:10;}
	.st8{fill:#66C473;stroke:#1D1D1B;stroke-miterlimit:10;}
	.st9{fill:none;stroke:#1D1D1B;stroke-miterlimit:10;}
	.st10{fill:#8DD89D;stroke:#1D1D1B;stroke-miterlimit:10;}
	.st11{fill:#66C473;stroke:#1D1D1B;stroke-width:0.75;stroke-miterlimit:10;}
	.st12{fill:#8DD89D;}
	.st13{fill:#EC5E5C;}
	.st14{fill:#412928;stroke:#000000;stroke-width:0.75;stroke-miterlimit:10;}
	.st15{fill:#FFFFFF;}
	.st16{fill:#F9D980;stroke:#1D1D1B;stroke-width:0.75;stroke-miterlimit:10;}
	.st17{fill:#296268;stroke:#1D1D1B;stroke-miterlimit:10;}
	.st18{fill:#FEBE36;stroke:#1D1D1B;stroke-miterlimit:10;}
	.st19{fill:#FFE012;}
	.st20{fill:#0768A9;stroke:#1D1D1B;stroke-miterlimit:10;}
	.st21{fill:#FFE012;stroke:#1D1D1B;stroke-miterlimit:10;}
	.st22{fill:#3691A1;stroke:#1D1D1B;stroke-miterlimit:10;}
	.st23{fill:#FFFFFF;stroke:#1D1D1B;stroke-miterlimit:10;}
	.st24{fill:#D4E0E1;stroke:#1D1D1B;stroke-miterlimit:10;}
	.st25{fill:none;stroke:#1D1D1B;stroke-linecap:round;stroke-miterlimit:10;}
</style>
<g id="Layer_1">
	
		<image style="overflow:visible;" width="519" height="124" xlink:href="C002569C.jpg"  transform="matrix(1 0 0 1 34.1071 183.9401)">
	</image>
</g>
<g id="brazo_izq">
</g>
<g id="Capa_6">
</g>
<g id="tronco">
	<g id="Capa_3">
	</g>
</g>
<g id="Cabeza">
	<g>
		<path class="st0" d="M-46.5,41.9c-1.3,0-8.6-0.3-13.2-6.1c-3.4-4.3-3.3-9.2-3.2-12.9c0-2.2,0.3-9,5.1-15.1
			c1.8-2.3,5.1-6.5,10.6-7.1c3.1-0.3,5.7,0.6,7.1,1.3c1,0.1,5.3,0.7,8.7,4.5c3.1,3.6,3.2,7.6,3.2,8.7c0.5,4.2,1.1,8.4,1.6,12.5
			c2.2,0.6,2.9,1.6,3.2,2.3c1.2,3-3.5,7.8-7.1,10C-36.7,43.8-43.8,42.5-46.5,41.9z"/>
		<path class="st1" d="M-43.3,41.1c-1,0-6.8-0.3-10.5-5.8c-2.7-4.1-2.6-8.8-2.6-12.3c0-2.1,0.2-8.6,4.1-14.5
			c1.5-2.2,4.1-6.2,8.4-6.8c2.5-0.3,4.5,0.6,5.6,1.2c0.8,0.1,4.2,0.6,6.9,4.3c2.5,3.4,2.6,7.3,2.6,8.3c0.4,4,0.9,8,1.3,12
			c1.7,0.6,2.3,1.5,2.6,2.2c1,2.9-2.8,7.5-5.6,9.5C-35.5,43-41.1,41.8-43.3,41.1z"/>
	</g>
	<path class="st2" d="M63.6,102.6"/>
	<path class="st3" d="M58.1,68c-3.3-0.5-4.9-3.3-4.2-5.1c0.6-1.5,2.8-2.5,5.2-2.1c-1.4-3-0.4-5.8,1-6.4c1.5-0.6,4.4,0.8,5.6,4.1
		c0.9-1.4,2.8-1.8,3.9-1c0.8,0.6,1.1,1.7,0.7,2.8c2.7-0.1,4.5,2.1,4.2,3.7c-0.2,1.5,0.4,2.6-4.2,1.3c-0.1,2-2.3,4.8-4.1,4.7
		c-1.4,0-2.7-1-3.2-2.3c0.6,2-0.7,3.8-2.4,4.1c-1.3,0.2-3.6,0-3.4-1.9C57.5,69.2,57.8,68.6,58.1,68z"/>
	<path class="st4" d="M76.2,86.1c-1.3,0-8.6-0.3-13.2-6.1c-3.4-4.3-3.3-9.2-3.2-12.9c0-2.2,0.3-9,5.1-15.1c1.8-2.3,5.1-6.5,10.6-7.1
		c3.1-0.3,5.7,0.6,7.1,1.3c1,0.1,5.3,0.7,8.7,4.5c3.1,3.6,3.2,7.6,3.2,8.7c0.5,4.2,1.1,8.4,1.6,12.5c2.2,0.6,2.9,1.6,3.2,2.3
		c1.2,3-3.5,7.8-7.1,10C86,88.1,79,86.8,76.2,86.1z"/>
	<path class="st2" d="M93.7,83.5c-0.6,0.4-1.4,0.5-2.1,0.3c-1.9-0.6-5.4-2.1-6.8-5.7c-0.3-0.6-1.4-3.5,0-6.1
		c0.7-1.2,2.4-3.2,4.2-2.7c0.3,0.1,0.5,0.2,0.7,0.3c0.9,0.6,1.2,1.8,0.8,2.8c-0.2,0.6-0.4,1.3-0.2,2.1c0.2,1.6,1.3,2.6,1.8,3.1
		c2.1,1.9,4.3,1.4,4.7,2.4c0.2,0.5-0.4,1.1-1.2,2C95.1,82.5,94.5,82.9,93.7,83.5z"/>
	<path class="st2" d="M95.1,81.9c-0.4,0.1-0.9,0.5-2.8-0.2c-2.6-1-4.4-5-4.4-5.1"/>
	<g>
		<path class="st2" d="M86.6,65.9c-1.9-2.6-2.2-5.6-0.8-7.4c0.3-0.4,0.9-1.1,2.3-1.4c0.8,0,2.6,0.1,3.5,1.3c0.5,0.6,0.5,1.4,0.6,3.1
			c0.2,2.4,0.3,4,0.3,4.7c-1.1,0.2-2.1,0.4-3.2,0.6C88.5,66.5,87.6,66.2,86.6,65.9z"/>
		<path class="st5" d="M89.2,66.1c-0.3-2.2-0.1-3.9,0.6-4.2c0.6-0.2,1.3,0.5,1.6,0.8c0.8,0.9,1.1,2.7,0.2,3.4
			C90.9,66.6,90,66.5,89.2,66.1z"/>
	</g>
	<ellipse class="st6" cx="99.5" cy="69.2" rx="4.4" ry="5"/>
	<path class="st7" d="M62.4,68c-3.3-0.5-4.9-3.3-4.2-5.1c0.6-1.5,2.8-2.5,5.2-2.1c-1.4-3-0.4-5.8,1-6.4c1.5-0.6,4.4,0.8,5.6,4.1
		c0.9-1.4,2.8-1.8,3.9-1c0.8,0.6,1.1,1.7,0.7,2.8c2.7-0.1,4.5,2.1,4.2,3.7c-0.2,1.5,0.4,2.6-4.2,1.3c-0.1,2-2.3,4.8-4.1,4.7
		c-1.4,0-2.7-1-3.2-2.3c0.6,2-0.7,3.8-2.4,4.1c-1.3,0.2-3.6,0-3.4-1.9C61.8,69.2,62.1,68.6,62.4,68z"/>
	<path class="st8" d="M-66.2,24.6c-3.3-0.5-4.9-3.3-4.2-5.1c0.6-1.5,2.8-2.5,5.2-2.1c-1.4-3-0.4-5.8,1-6.4c1.5-0.6,4.4,0.8,5.6,4.1
		c0.9-1.4,2.8-1.8,3.9-1c0.8,0.6,1.1,1.7,0.7,2.8c2.7-0.1,4.5,2.1,4.2,3.7c-0.2,1.5,0.4,2.6-4.2,1.3c-0.1,2-2.3,4.8-4.1,4.7
		c-1.4,0-2.7-1-3.2-2.3c0.6,2-0.7,3.8-2.4,4.1c-1.3,0.2-3.6,0-3.4-1.9C-66.8,25.8-66.5,25.2-66.2,24.6z"/>
	<path class="st4" d="M-30.6,40.1c-0.6,0.4-1.4,0.5-2.1,0.3c-1.9-0.6-5.4-2.1-6.8-5.7c-0.3-0.6-1.4-3.5,0-6.1
		c0.7-1.2,2.4-3.2,4.2-2.7c0.3,0.1,0.5,0.2,0.7,0.3c0.9,0.6,1.2,1.8,0.8,2.8c-0.2,0.6-0.4,1.3-0.2,2.1c0.2,1.6,1.3,2.6,1.8,3.1
		c2.1,1.9,4.3,1.4,4.7,2.4c0.2,0.5-0.4,1.1-1.2,2C-29.1,39.1-29.8,39.5-30.6,40.1z"/>
	<path class="st9" d="M-29.1,38.5c-0.4,0.1-0.9,0.5-2.8-0.2c-2.6-1-4.4-5-4.4-5.1"/>
	<path class="st10" d="M-61.9,24.6c-3.3-0.5-4.9-3.3-4.2-5.1c0.6-1.5,2.8-2.5,5.2-2.1c-1.4-3-0.4-5.8,1-6.4c1.5-0.6,4.4,0.8,5.6,4.1
		c0.9-1.4,2.8-1.8,3.9-1c0.8,0.6,1.1,1.7,0.7,2.8c2.7-0.1,4.5,2.1,4.2,3.7c-0.2,1.5,0.4,2.6-4.2,1.3c-0.1,2-2.3,4.8-4.1,4.7
		c-1.4,0-2.7-1-3.2-2.3c0.6,2-0.7,3.8-2.4,4.1c-1.3,0.2-3.6,0-3.4-1.9C-62.5,25.8-62.2,25.2-61.9,24.6z"/>
	<path class="st10" d="M-47.1,3.4c-2.2-1.2-2.7-3.6-1.8-4.7c0.8-0.9,2.6-1.2,4.2-0.2c-0.3-2.5,1.1-4.3,2.3-4.4
		c1.2-0.1,2.9,1.7,3,4.3c1-0.8,2.4-0.6,3,0.2c0.4,0.6,0.4,1.5-0.1,2.2c1.9,0.6,2.7,2.6,2.1,3.7c-0.5,1-0.4,2-3.3-0.1
		c-0.6,1.4-2.8,2.9-4.1,2.4c-1-0.4-1.7-1.3-1.7-2.5c0,1.6-1.4,2.6-2.7,2.4c-1-0.2-2.6-0.9-1.9-2.2C-47.8,4.1-47.4,3.7-47.1,3.4z"/>
	<g>
		<path class="st11" d="M-47.1,3.4c-2.2-1.2-2.7-3.6-1.8-4.7c0.8-0.9,2.6-1.2,4.2-0.2c-0.3-2.5,1.1-4.3,2.3-4.4
			c1.2-0.1,2.9,1.7,3,4.3c1-0.8,2.4-0.6,3,0.2c0.4,0.6,0.4,1.5-0.1,2.2c1.9,0.6,2.7,2.6,2.1,3.7c-0.5,1-0.4,2-3.3-0.1
			c-0.6,1.4-2.8,2.9-4.1,2.4c-1-0.4-1.7-1.3-1.7-2.5c0,1.6-1.4,2.6-2.7,2.4c-1-0.2-2.6-0.9-1.9-2.2C-47.8,4.1-47.4,3.7-47.1,3.4z"/>
		<path class="st12" d="M-44.3,3.1c-1.3-0.7-1.6-2.3-1-3.1c0.5-0.6,1.6-0.8,2.6-0.3c-0.1-1.7,0.8-2.9,1.5-3c0.7-0.1,1.7,1,1.7,2.8
			c0.6-0.6,1.5-0.5,1.8,0.1c0.3,0.4,0.2,1-0.1,1.5c1.2,0.4,1.6,1.7,1.2,2.4c-0.4,0.7-0.3,1.3-2,0c-0.4,1-1.8,2-2.5,1.7
			c-0.6-0.2-1-0.9-1-1.6c-0.1,1-0.9,1.8-1.7,1.6c-0.6-0.1-1.6-0.5-1.1-1.4C-44.8,3.6-44.6,3.3-44.3,3.1z"/>
	</g>
	<g>
		<ellipse class="st6" cx="-24.7" cy="25.8" rx="4.4" ry="5"/>
		<circle class="st13" cx="-24.3" cy="24.7" r="3.1"/>
	</g>
	<g>
		<path class="st4" d="M-37.6,22.5c-1.9-2.6-2.2-5.6-0.8-7.4c0.3-0.4,0.9-1.1,2.3-1.4c0.8,0,2.6,0.1,3.5,1.3
			c0.5,0.6,0.5,1.4,0.6,3.1c0.2,2.4,0.3,4,0.3,4.7c-1.1,0.2-2.1,0.4-3.2,0.6C-35.8,23.1-36.7,22.8-37.6,22.5z"/>
		<path class="st14" d="M-35.1,22.7c-0.3-2.2-0.1-3.9,0.6-4.2c0.6-0.2,1.3,0.5,1.6,0.8c0.8,0.9,1.1,2.7,0.2,3.4
			C-33.4,23.2-34.3,23.1-35.1,22.7z"/>
		<circle class="st15" cx="-34.4" cy="19.6" r="0.7"/>
		<circle class="st15" cx="-33.2" cy="21.1" r="0.5"/>
	</g>
	<g>
		<path class="st16" d="M-47.8,25.9c-1.3-0.3-2.3-1.3-2.4-2.5c-0.1-1.2,0.7-2.5,2.1-2.7c1-0.1,2.1,0.4,2.7,1.4"/>
		<path class="st1" d="M-46.9,25.4c-0.8-0.2-1.5-0.8-1.5-1.5c-0.1-0.7,0.4-1.6,1.3-1.7c0.7-0.1,1.3,0.3,1.7,0.9"/>
	</g>
</g>
<g id="pie_derecho">
	<g>
		<path class="st17" d="M-37.4,98.9c-0.3,2.8-0.6,5.6-0.9,8.4c0.4,0.3,1.6,1.1,3.2,1.3c1.3,0.1,2.3-0.2,2.8-0.4
			c0.1-3.1,0.1-6.1,0.2-9.2C-33.9,98.9-35.7,98.9-37.4,98.9z"/>
		<path class="st18" d="M-38.4,106.3c0.1,0.2,0.6,2,2.1,2.6c0.9,0.3,1.8,0.2,2.1,0.1c0.9-0.2,1.6-0.6,1.9-0.9c0.1,0,1.6,0.2,2.1,1.3
			c0.6,1.3-0.5,2.7-0.6,2.9c-1.2,1.6-3.4,1.6-4.3,1.6c-0.7,0-3.4,0-5-1.9c-0.4-0.5-1.6-1.9-1.1-3.5
			C-40.5,106.8-38.5,106.4-38.4,106.3z"/>
		<path class="st6" d="M-39.4,112.5c-0.4,0-1.7,0.1-2.6,1.1c-1.4,1.4-1.3,4.2,0.3,5.6c1.5,1.3,3.5,0.8,3.8,0.8
			c0.7,0.3,1.7,0.7,3,0.9c1,0.2,1.6,0.1,3.5,0.1c3.4,0,3.1,0.1,4.5,0c2.5-0.1,3.7-0.2,4.7-0.6c0.3-0.1,3.6-1.8,3.4-4.5
			c-0.1-1.6-1.3-2.8-2.4-3.4c-1.9-1-4.4-0.4-5.8,0.3c-0.8,0.4-1.3,0.9-2.3,1c-1,0.1-2-0.2-2.6-0.5c-0.7,0.4-1.7,0.9-3,1.1
			c-0.8,0.1-1.9,0.2-3.1-0.3C-38.6,113.4-39.1,112.9-39.4,112.5z"/>
		<circle class="st13" cx="-23.2" cy="114.7" r="2"/>
		<path class="st19" d="M-37.6,108.6c0,0.1,0.4,1.1,1.3,1.4c0.6,0.2,1.1,0.1,1.3,0.1c0.6-0.1,1-0.3,1.2-0.5c0.1,0,1,0.1,1.3,0.7
			c0.4,0.7-0.3,1.4-0.4,1.6c-0.8,0.9-2.1,0.9-2.7,0.9c-0.5,0-2.1,0-3.1-1.1c-0.2-0.3-1-1-0.7-1.9C-38.9,108.9-37.7,108.6-37.6,108.6
			z"/>
	</g>
	<path class="st20" d="M-49.2,47.5c-1.4,5.2-2.8,10.3-4.2,15.5c2.4,1.4,7,3.8,13,3.3c2.8-0.2,5.1-1,6.8-1.8
		c-0.7-6.2-1.4-12.4-2.1-18.5C-40.2,46.4-44.7,47-49.2,47.5z"/>
	<path class="st21" d="M-54.4,63.8l-1.1,1.2c-0.6,0.6-0.4,1.6,0.4,2c2.4,1.1,6.1,2.5,11,2.8c4.7,0.3,8.7-0.5,11.3-1.2
		c0.7-0.2,1.1-1,0.8-1.7l-0.6-1.6c-0.3-0.7-1-1-1.7-0.7c-1.9,0.8-5.2,1.9-9.3,1.7c-4.4-0.2-7.5-1.7-9.2-2.7
		C-53.4,63.3-54,63.4-54.4,63.8z"/>
	<g>
		<path class="st18" d="M-51.7,49.8c-0.3,0.3-0.4,0.7-0.3,1c0.1,0.6,0.5,1,1.2,1.3c0.7,0.3,1.6,0.2,2.3-0.2c0.9-0.6,1-0.5,0.9-1.5
			c0.3,0.8,1,1.3,1.9,1.4c0.2,0,1.1,0.1,1.9-0.5c0.7-0.5,1-1.2,0.8-2c0.1,0.2,0.3,1,1.3,1.5c0.3,0.1,1.1,0.5,2.1,0.2
			c0.8-0.3,1.4-0.9,1.6-1.7c0,0.1,0.4,0.9,1.4,1.2c1.1,0.2,2.5-0.3,2.9-1.3c0.3-0.8-0.1-1.7-1.1-2.1l-2-2.1
			c-0.5-0.5-1.5-0.7-2.3-0.3c-0.8,0.4-1.8,0.7-3,0.8c-1.6,0.2-3-0.2-3.9-0.5c-0.8-0.3-1.7,0-2.3,0.6C-49.2,46.9-50.4,48.3-51.7,49.8
			z"/>
		<path class="st19" d="M-50.1,49.5c-0.2,0.2-0.4,0.5-0.3,0.7c0.1,0.4,0.4,0.7,1,0.8c0.6,0.2,1.4,0.1,2-0.2c0.8-0.4,0.8-0.4,0.8-1.1
			c0.2,0.5,0.8,0.8,1.6,0.9c0.2,0,1,0,1.7-0.4c0.6-0.4,0.9-0.9,0.8-1.4c0,0.1,0.3,0.7,1.1,1c0.2,0.1,0.9,0.3,1.8,0.1
			c0.7-0.2,1.3-0.7,1.4-1.2c0,0.1,0.3,0.6,1.2,0.8c0.9,0.1,2.1-0.3,2.5-1c0.3-0.6-0.1-1.2-0.9-1.4l-1.6-1.4
			c-0.4-0.4-1.2-0.5-1.9-0.2c-0.7,0.3-1.5,0.5-2.6,0.7c-1.4,0.2-2.5,0-3.3-0.3c-0.6-0.2-1.5,0-1.9,0.5C-48,47.4-49.1,48.4-50.1,49.5
			z"/>
	</g>
	<g>
		<path class="st22" d="M-91.4,65.8c-0.5-2-1.1-4.7-1-8c0.2-5.1,1.8-9,2.9-11.3c0.3-2.4,2.6-3.7,4.2-3.2c1.4,0.4,2.4,2.2,1.9,4.2
			c-2.1,2.3-2.7,4.3-2.9,5.8c-0.4,2.8,0.8,3.9,0.3,7.7c-0.2,1.8-0.5,3.6-1.9,4.5C-89.1,66.3-90.7,66-91.4,65.8z"/>
		<g>
			<path class="st18" d="M-92,66.4L-92,66.4c0.3,0,3.6-0.1,5.3-2.3c0.4-0.5,1.4-1.6,1.2-3c-0.1-0.4-0.2-0.6,0-0.9
				c0.5-0.8,3.5-0.8,5,0.3c1.9,1.6,0.7,5.1-0.8,7.1c-0.5,0.7-2.8,3.8-6.9,3.9C-91,71.6-91.4,66.8-92,66.4"/>
		</g>
		<path class="st23" d="M-86.3,71.8c-0.1,1,1.5,2.1,2.5,2.5c1.3,0.5,2.4,0.3,2.7,0.3c1.2-0.2,1.9-0.9,2.2-1.2c1.1-1,1.5-2.2,1.6-2.7
			c0.2,0.1,0.5,0.4,1,0.4c0.2,0,0.7,0,1-0.2c0.9-0.7,0.1-1.4,0-1.8c-0.7-2.1-2.9-4.3-4.1-5.4c-0.2,0.9-0.5,2.2-1.4,3.5
			c-0.8,1.1-1.6,1.8-2.1,2.2C-85,71-86.2,70.9-86.3,71.8z"/>
		<path class="st19" d="M-88.9,66.4L-88.9,66.4c0.2,0,2.2-0.1,3.3-1.8c0.3-0.4,0.8-1.3,0.7-2.3c0-0.3-0.1-0.5,0-0.7
			c0.3-0.6,2.2-0.7,3.1,0.3c1.2,1.2,0.4,4-0.5,5.6c-0.3,0.6-1.7,3-4.3,3C-88.3,70.4-88.5,66.7-88.9,66.4"/>
	</g>
	<g>
		<path class="st17" d="M-107.1,68c-0.5-2-1.1-4.7-1-8c0.2-5.1,1.8-9,2.9-11.3c0.3-2.4,2.6-3.7,4.2-3.2c1.4,0.4,2.4,2.2,1.9,4.2
			c-2.1,2.3-2.7,4.3-2.9,5.8c-0.4,2.8,0.8,3.9,0.3,7.7c-0.2,1.8-0.5,3.6-1.9,4.5C-104.8,68.5-106.4,68.2-107.1,68z"/>
		<g>
			<path class="st18" d="M-107.6,68.6L-107.6,68.6c0.3,0,3.6-0.1,5.3-2.3c0.4-0.5,1.4-1.6,1.2-3c-0.1-0.4-0.2-0.6,0-0.9
				c0.5-0.8,3.5-0.8,5,0.3c1.9,1.6,0.7,5.1-0.8,7.1c-0.5,0.7-2.8,3.8-6.9,3.9C-106.7,73.8-107.1,69-107.6,68.6"/>
		</g>
		<path class="st24" d="M-102,74c-0.1,1,1.5,2.1,2.5,2.5c1.3,0.5,2.4,0.3,2.7,0.3c1.2-0.2,1.9-0.9,2.2-1.2c1.1-1,1.5-2.2,1.6-2.7
			c0.2,0.1,0.5,0.4,1,0.4c0.2,0,0.7,0,1-0.2c0.9-0.7,0.1-1.4,0-1.8c-0.7-2.1-2.9-4.3-4.1-5.4c-0.2,0.9-0.5,2.2-1.4,3.5
			c-0.8,1.1-1.6,1.8-2.1,2.2C-100.7,73.2-101.9,73.1-102,74z"/>
	</g>
	<circle class="st13" cx="-81.2" cy="102.5" r="2"/>
	<g>
		<path class="st22" d="M-95.4,86.7c-0.3,2.8-0.6,5.6-0.9,8.4c0.4,0.3,1.6,1.1,3.2,1.3c1.3,0.1,2.3-0.2,2.8-0.4
			c0.1-3.1,0.1-6.1,0.2-9.2C-91.9,86.7-93.7,86.7-95.4,86.7z"/>
		<path class="st18" d="M-96.4,94.1c0.1,0.2,0.6,2,2.1,2.6c0.9,0.3,1.8,0.2,2.1,0.1c0.9-0.2,1.6-0.6,1.9-0.9c0.1,0,1.6,0.2,2.1,1.3
			c0.6,1.3-0.5,2.7-0.6,2.9c-1.2,1.6-3.4,1.6-4.3,1.6c-0.7,0-3.4,0-5-1.9c-0.4-0.5-1.6-1.9-1.1-3.5C-98.5,94.6-96.5,94.2-96.4,94.1z
			"/>
		<path class="st6" d="M-97.4,100.3c-0.4,0-1.7,0.1-2.6,1.1c-1.4,1.4-1.3,4.2,0.3,5.6c1.5,1.3,3.5,0.8,3.8,0.8
			c0.7,0.3,1.7,0.7,3,0.9c1,0.2,1.6,0.1,3.5,0.1c3.4,0,3.1,0.1,4.5,0c2.5-0.1,3.7-0.2,4.7-0.6c0.3-0.1,3.6-1.8,3.4-4.5
			c-0.1-1.6-1.3-2.8-2.4-3.4c-1.9-1-4.4-0.4-5.8,0.3c-0.8,0.4-1.3,0.9-2.3,1c-1,0.1-2-0.2-2.6-0.5c-0.7,0.4-1.7,0.9-3,1.1
			c-0.8,0.1-1.9,0.2-3.1-0.3C-96.6,101.2-97.2,100.7-97.4,100.3z"/>
		<path class="st19" d="M-95.6,96.4c0,0.1,0.4,1.1,1.3,1.4c0.6,0.2,1.1,0.1,1.3,0.1c0.6-0.1,1-0.3,1.2-0.5c0.1,0,1,0.1,1.3,0.7
			c0.4,0.7-0.3,1.4-0.4,1.6c-0.8,0.9-2.1,0.9-2.7,0.9c-0.5,0-2.1,0-3.1-1.1c-0.2-0.3-1-1-0.7-1.9C-96.9,96.7-95.7,96.4-95.6,96.4z"
			/>
	</g>
	<circle class="st15" cx="-37.8" cy="54.9" r="1.8"/>
	<circle class="st15" cx="-37.3" cy="59.1" r="1.6"/>
</g>
<g id="brazo_derecho">
	<path class="st9" d="M-97,323.8"/>
	<path class="st2" d="M-125.5,310.5"/>
</g>
<g id="cabeza_frente">
	<g>
		<path class="st16" d="M-71.6,218.4c0.3-0.4-0.2-1.3-0.3-1.5c-1.7-3.1-0.6-9.7,1.6-14.1c0.6-1.2,1.7-3.5,4.1-5.6
			c3.2-2.9,6.7-3.7,8.6-4.1c1.3-0.3,4.1-0.9,7.7-0.2c4.9,0.9,8,3.5,9.2,4.5c1,0.9,5.7,5.1,6,10.5c0,0.1,0,0.1,0,7.1
			c0,0.2,0,2.2,0,2.4c0.9,0.1,1.8,0.3,2.4,1.1c1.5,2.2-2.3,7-3.4,8.4c-1.5,1.8-4.2,4.9-9,7.1c-8.3,3.9-10.2,1.2-12.9,0.6
			c-4.4-0.9-7.4-2.7-8.6-3.4c-3.6-2.3-5.5-4.8-6-5.6c-1.9-2.6-2.4-5-1.5-5.8C-73,219.1-72.1,219.1-71.6,218.4z"/>
		<path class="st1" d="M-68.5,218.3c0.3-0.4-0.2-1.2-0.3-1.4c-1.5-2.9-0.5-9.3,1.4-13.6c0.5-1.2,1.5-3.3,3.6-5.3
			c2.8-2.8,5.9-3.5,7.6-3.9c1.2-0.3,3.7-0.8,6.8-0.2c4.3,0.8,7.1,3.3,8.1,4.3c0.9,0.8,5,4.9,5.3,10.1c0,0.1,0,0,0,6.8
			c0,0.2,0,2.1,0,2.3c0.8,0.1,1.6,0.3,2.1,1c1.3,2.1-2.1,6.7-3,8c-1.3,1.8-3.7,4.7-7.9,6.8c-7.3,3.7-9,1.1-11.3,0.6
			c-3.9-0.9-6.6-2.6-7.6-3.3c-3.1-2.2-4.8-4.6-5.3-5.3c-1.7-2.5-2.1-4.8-1.3-5.6C-69.8,218.9-69,218.9-68.5,218.3z"/>
	</g>
	<g>
		<path class="st4" d="M-60.6,212.9c-1.9-2.6-2.2-5.6-0.8-7.4c0.3-0.4,0.9-1.1,2.3-1.4c0.8,0,2.6,0.1,3.5,1.3
			c0.5,0.6,0.5,1.4,0.6,3.1c0.2,2.4,0.3,4,0.3,4.7c-1.1,0.2-2.1,0.4-3.2,0.6C-58.8,213.4-59.7,213.2-60.6,212.9z"/>
		<path class="st14" d="M-58.1,213.1c-0.3-2.2-0.1-3.9,0.6-4.2c0.6-0.2,1.3,0.5,1.6,0.8c0.8,0.9,1.1,2.7,0.2,3.4
			C-56.4,213.5-57.3,213.5-58.1,213.1z"/>
		<circle class="st15" cx="-57.4" cy="210" r="0.7"/>
		<circle class="st15" cx="-56.2" cy="211.4" r="0.5"/>
	</g>
	<g>
		<path class="st4" d="M-43.9,212.5c1.9-2.6,2.2-5.6,0.8-7.4c-0.3-0.4-0.9-1.1-2.3-1.4c-0.8,0-2.6,0.1-3.5,1.3
			c-0.5,0.6-0.5,1.4-0.6,3.1c-0.2,2.4-0.3,4-0.3,4.7c1.1,0.2,2.1,0.4,3.2,0.6C-45.7,213.1-44.8,212.8-43.9,212.5z"/>
		<path class="st14" d="M-46.4,212.7c0.3-2.2,0.1-3.9-0.6-4.2c-0.6-0.2-1.3,0.5-1.6,0.8c-0.8,0.9-1.1,2.7-0.2,3.4
			C-48.2,213.2-47.3,213.1-46.4,212.7z"/>
		<circle class="st15" cx="-47.2" cy="209.6" r="0.7"/>
		<circle class="st15" cx="-48.4" cy="211" r="0.5"/>
	</g>
	<g>
		<ellipse class="st6" cx="-52" cy="218.3" rx="3.8" ry="4"/>
		<ellipse class="st13" cx="-52" cy="217.6" rx="2.6" ry="2.5"/>
	</g>
	<g>
		<path class="st11" d="M-59,194.3c-2.2-1.2-2.7-3.6-1.8-4.7c0.8-0.9,2.6-1.2,4.2-0.2c-0.3-2.5,1.1-4.3,2.3-4.4
			c1.2-0.1,2.9,1.7,3,4.3c1-0.8,2.4-0.6,3,0.2c0.4,0.6,0.4,1.5-0.1,2.2c1.9,0.6,2.7,2.6,2.1,3.7c-0.5,1-0.4,2-3.3-0.1
			c-0.6,1.4-2.8,2.9-4.1,2.4c-1-0.4-1.7-1.3-1.7-2.5c0,1.6-1.4,2.6-2.7,2.4c-1-0.2-2.6-0.9-1.9-2.2C-59.7,195-59.3,194.7-59,194.3z"
			/>
		<path class="st12" d="M-56.3,194c-1.3-0.7-1.6-2.3-1-3.1c0.5-0.6,1.6-0.8,2.6-0.3c-0.1-1.7,0.8-2.9,1.5-3c0.7-0.1,1.7,1,1.7,2.8
			c0.6-0.6,1.5-0.5,1.8,0.1c0.3,0.4,0.2,1-0.1,1.5c1.2,0.4,1.6,1.7,1.2,2.4c-0.4,0.7-0.3,1.3-2,0c-0.4,1-1.8,2-2.5,1.7
			c-0.6-0.2-1-0.9-1-1.6c-0.1,1-0.9,1.8-1.7,1.6c-0.6-0.1-1.6-0.5-1.1-1.4C-56.7,194.5-56.5,194.2-56.3,194z"/>
	</g>
	<g>
		<path class="st11" d="M-81.7,217.2c-3.3-0.6-4.9-3.6-4.2-5.5c0.6-1.6,2.8-2.7,5.2-2.3c-1.4-3.3-0.4-6.3,1-6.9
			c1.5-0.6,4.4,0.9,5.6,4.4c0.9-1.6,2.8-1.9,3.9-1.1c0.8,0.6,1.1,1.8,0.7,3c2.7-0.1,4.5,2.2,4.2,4c-0.2,1.6,0.4,2.8-4.2,1.4
			c-0.1,2.2-2.3,5.2-4.1,5.1c-1.4,0-2.7-1-3.2-2.5c0.6,2.1-0.7,4.1-2.4,4.4c-1.3,0.2-3.6,0-3.4-2C-82.3,218.5-82,217.8-81.7,217.2z"
			/>
		<path class="st12" d="M-79.7,215.1c-2.2-0.3-3.3-2.2-2.8-3.4c0.4-1,1.8-1.7,3.5-1.4c-1-2-0.3-3.9,0.7-4.3c1-0.4,2.9,0.6,3.7,2.7
			c0.6-1,1.9-1.2,2.6-0.7c0.5,0.4,0.8,1.1,0.5,1.9c1.8,0,3,1.4,2.8,2.5c-0.2,1,0.3,1.7-2.8,0.9c-0.1,1.4-1.5,3.2-2.7,3.2
			c-0.9,0-1.8-0.6-2.2-1.6c0.4,1.3-0.5,2.5-1.6,2.7c-0.8,0.1-2.4,0-2.2-1.2C-80.1,216-79.9,215.5-79.7,215.1z"/>
	</g>
	<path class="st23" d="M-56.5,230.5c-1.1-0.3-5.8-1.8-7.7-5.7c-0.4-0.7-1-2.2-0.7-4c0.1-0.4,0.4-2.2,2-3.6c0.6-0.5,1.3-1.2,2.4-1.3
		c0.2,0,1.4-0.1,2.3,0.7c0.6,0.6,0.6,1.3,0.7,1.8c0,0.9-0.4,1.1-0.5,2c-0.2,1.4,0.6,2.5,0.9,2.9c0.8,1.2,2,1.7,2.5,1.9
		c0.6,0.3,1.8,0.8,3.4,0.7c1.6-0.2,2.6-1,3.3-1.5c0.5-0.4,1.2-1,1.7-2c0.5-1.1,0.3-2.2,0.3-2.5c-0.2-0.9-0.5-1.1-0.4-1.8
		c0-0.3,0.2-1.2,1.1-1.8c1-0.6,2.3-0.3,2.6-0.2c1,0.3,1.6,1,2.1,1.5c1.2,1.3,1.4,2.7,1.5,3.1c0.3,1.8-0.3,3.3-0.7,4.1
		c-0.2,0.4-1.2,2.3-3.5,3.8c-2,1.3-3.8,1.6-5.6,1.9C-50.7,230.8-53.3,231.1-56.5,230.5z"/>
	<path class="st25" d="M-60,223c0.4,1,1.8,3.6,4.7,4.7c1.5,0.6,2.9,0.5,4.6,0.3c2.1-0.2,3.6-0.3,5-1.4c1.7-1.3,2.2-3.2,2.4-4.2"/>
	<g>
		<path class="st11" d="M-23.3,215.9c3.3-0.6,4.9-3.6,4.2-5.5c-0.6-1.6-2.8-2.8-5.2-2.3c1.4-3.3,0.4-6.3-1-6.9
			c-1.5-0.6-4.4,0.9-5.6,4.4c-0.9-1.6-2.8-1.9-3.9-1.1c-0.8,0.6-1.1,1.8-0.7,3c-2.7-0.1-4.5,2.2-4.2,4c0.2,1.6-0.4,2.8,4.2,1.4
			c0.1,2.2,2.3,5.2,4.1,5.1c1.4,0,2.7-1,3.2-2.5c-0.6,2.1,0.7,4.1,2.4,4.4c1.3,0.2,3.6,0,3.4-2C-22.7,217.3-23,216.6-23.3,215.9z"/>
		<path class="st12" d="M-25.3,213.9c2.2-0.3,3.3-2.2,2.8-3.4c-0.4-1-1.8-1.7-3.5-1.4c1-2,0.3-3.9-0.7-4.3c-1-0.4-2.9,0.6-3.7,2.7
			c-0.6-1-1.9-1.2-2.6-0.7c-0.5,0.4-0.8,1.1-0.5,1.9c-1.8,0-3,1.4-2.8,2.5c0.2,1-0.3,1.8,2.8,0.9c0.1,1.4,1.5,3.2,2.7,3.2
			c0.9,0,1.8-0.6,2.2-1.6c-0.4,1.3,0.5,2.6,1.6,2.7c0.8,0.1,2.4,0,2.2-1.2C-24.9,214.7-25.1,214.3-25.3,213.9z"/>
	</g>
	<path class="st16" d="M-71,218.4c-1.3-0.3-2.3-1.3-2.4-2.5c-0.1-1.2,0.7-2.5,2.1-2.7c1-0.1,2.1,0.4,2.7,1.4"/>
	<g>
		<path class="st16" d="M-34.9,217c1.3-0.3,2.3-1.3,2.4-2.5c0.1-1.2-0.7-2.5-2.1-2.7c-1-0.1-2.1,0.4-2.7,1.4"/>
		<path class="st1" d="M-35.8,216.4c0.8-0.2,1.5-0.8,1.5-1.5c0.1-0.7-0.4-1.6-1.3-1.7c-0.7-0.1-1.3,0.3-1.7,0.9"/>
	</g>
</g>
<g id="cuerpo_frente">
	<path class="st4" d="M-73.1,249.1c2.6,1,4.8,1.5,6.4,1.7c1.9,0.3,3.7,0.5,6,0c1.9-0.4,3.4-1.2,4.3-1.7c1.1,5.9,2.3,11.7,3.4,17.6
		c-2.1,1-5,2.1-8.6,2.6c-4,0.6-7.1,0.2-8.1,0c-3.1-0.5-5.6-1.4-7.3-2.1C-75.7,261.1-74.4,255.1-73.1,249.1z"/>
	<path class="st4" d="M-78.9,275.4c0.3-0.4,0.9-0.5,1.4-0.3c2.7,0.9,6.6,1.9,11.3,1.7c1.8-0.1,4.6-0.3,7.8-1.7
		c1-0.5,1.9-0.9,2.5-1.4c0.5-0.3,1.2-0.3,1.6,0.1c0.6,0.5,1.1,1,1.7,1.5c0,0,0,0,0,0c0.5,0.5,0.5,1.3,0,1.7c-1.1,1-2.7,2.1-4.7,3
		c-2.7,1.1-4.8,1.2-9,1.3c-5.3,0.2-8.8,0.3-12.1-1.9c-0.6-0.4-1.2-0.8-1.6-1.2c-0.5-0.4-0.5-1.2,0-1.7L-78.9,275.4z"/>
</g>
</svg>
