<svg id="Capa_1" enable-background="new 0 0 512 512" height="512" viewBox="0 0 512 512" width="512" xmlns="http://www.w3.org/2000/svg"><path d="m241 0v90h45c41.4 0 75-33.6 75-75v-15z" fill="#26bfa6"/><path d="m361 0v15c0 41.4-33.6 75-75 75h-30v-90z" fill="#19a690"/><path d="m0 211h151l79.895-71.278 25.105-79.722z" fill="#ff435b"/><path d="m256 60 22.5 76 82.5 75h151z" fill="#cd0000"/><path d="m361 211h-210l105-151z" fill="#ff7b4a"/><path d="m361 211h-105v-151z" fill="#ff435b"/><path d="m421 331v150l-30 31h-270l-30-31v-150z" fill="#575f64"/><path d="m421 331v150l-30 31h-135v-181z" fill="#474f54"/><path d="m406 301v176.1l-150-112.5-150 112.5v-176.1z" fill="#fdbf00"/><path d="m406 301v176.1l-150-112.5v-63.6z" fill="#ff9100"/><path d="m91 241h330v90h-330z" fill="#ffda2d"/><path d="m256 241h165v90h-165z" fill="#fdbf00"/><path d="m421 241h67.76l23.24 30v241h-61l-30-27.092z" fill="#cd0000"/><path d="m391 241h60v271h-60z" fill="#ff435b"/><path d="m61 512h-61v-241l30-30h61v241.056z" fill="#ff435b"/><path d="m61 241h60v271h-60z" fill="#ff7b4a"/><path d="m0 211h512v60h-512z" fill="#f3eee9"/><path d="m256 211h256v60h-256z" fill="#e9dfda"/></svg>